<svg xmlns="http://www.w3.org/2000/svg" viewBox="0 0 1563.49 1841.86"><defs><style>.cls-1{fill:#4bb749;}.cls-2{fill:#231f20;}.cls-3{fill:#f7941d;}.cls-4{fill:#fff;}</style></defs><title>Asset 3</title><g id="Layer_2" data-name="Layer 2"><g id="dragonTail"><path class="cls-1" d="M39,601l6.45-272S39.23,115,238.63,114h1155.3S1540,133,1539,261V661s21,206-114,203H574Z"/><path class="cls-2" d="M36.89,602.33l2.46-219.85c.19-18.41.5-36.87.63-55.28a259.91,259.91,0,0,1,1.42-28c1-9.26,2.29-18.48,4.1-27.62A263.09,263.09,0,0,1,61.84,218a215.14,215.14,0,0,1,12.84-25.17A192.39,192.39,0,0,1,91.07,169.6a167.52,167.52,0,0,1,43.2-37.2,183.58,183.58,0,0,1,53-21.07,217.62,217.62,0,0,1,28-4.6c4.7-.55,9.41-.78,14.13-1.09,4.7-.14,9.5-.32,14-.32l54.79-.49,219.14-2,438.29-3.74,438.3-3.21h1.2l1.14.16,1.65.23,1.41.22,2.72.46q2.67.47,5.28,1c3.49.72,6.93,1.5,10.34,2.37q10.24,2.59,20.22,6a229.72,229.72,0,0,1,38.83,17.35,196.89,196.89,0,0,1,18.23,11.7,172.78,172.78,0,0,1,16.94,14,148,148,0,0,1,27.65,35.12,144.81,144.81,0,0,1,15.67,42.12,165.48,165.48,0,0,1,3,22l.29,5.5c0,1.82.07,3.61.1,5.42l.07,9.93.51,78.31q.52,78.3,1.25,156.6L1562,661l-.11-2.32.25,2.64.21,2.4.34,4.7c.2,3.11.36,6.19.48,9.28.26,6.16.35,12.31.33,18.47,0,12.3-.63,24.63-1.86,37a314.45,314.45,0,0,1-5.91,37.26,223.73,223.73,0,0,1-11.62,37.25,155.34,155.34,0,0,1-20.44,35.8A117.77,117.77,0,0,1,1491,872.79a116,116,0,0,1-41.51,14.91c-3.58.64-7.11.94-10.66,1.31-3.5.2-7.11.46-10.39.42l-17.92.13q-139.42.9-278.84.3t-278.82-2.34c-46.47-.58-93-1.12-139.42-1.86s-93-1.49-139.42-2.3l-4.85-.08-3.68-1.9-67.31-34.76q-33.63-17.36-67.05-34.86l-33.43-17.45-33.31-17.5-66.38-35-66-35-65.57-34.91C123,648.66,79.64,625.5,36.89,602.33Zm4.28-2.59c46.41,20.67,92.27,41.35,137.92,61.9l68.18,30.83L315,723.25,382.4,754,416,769.39l33.45,15.43q33.42,15.4,66.7,30.88l66.43,31-8.52-2q69.75-1.23,139.5-2.3c46.5-.74,93-1.28,139.51-1.86q139.51-1.66,279-2.35t279,.31l16.94.11c2.54.08,4.73-.1,7-.17,2.23-.23,4.5-.35,6.65-.73a66.78,66.78,0,0,0,23.88-8A68.2,68.2,0,0,0,1484.81,813a106,106,0,0,0,14.44-24.33,175.31,175.31,0,0,0,9.66-29.06,267.14,267.14,0,0,0,5.62-31.47c1.27-10.72,2-21.62,2.32-32.55.13-5.47.16-10.95.05-16.4-.05-2.72-.13-5.44-.25-8.13l-.2-4-.25-3.65-.12-1.81V661l1.56-156.67q.78-78.33,1.25-156.66l.5-78.33,0-9.64,0-4.37-.17-4.28a127.5,127.5,0,0,0-2.06-16.79,106.06,106.06,0,0,0-11.1-31.13c-10.51-19.39-27.63-35.32-47.95-47.13a193.94,193.94,0,0,0-32.4-14.95c-5.66-2-11.43-3.82-17.23-5.36-2.9-.78-5.82-1.49-8.72-2.13-1.44-.31-2.89-.62-4.31-.89l-2.11-.39-1.78-.29,2.34.15L955.66,129l-438.28-3.75-219.14-2-54.78-.49c-4.64-.09-9,0-13.39.06-4.41.21-8.83.34-13.21.76a203.17,203.17,0,0,0-26.06,3.75A167.87,167.87,0,0,0,142,145.6a152.76,152.76,0,0,0-40.07,33.17A177.59,177.59,0,0,0,86.35,200a201.78,201.78,0,0,0-12.5,23.35A250.51,250.51,0,0,0,57.3,274c-1.91,8.73-3.37,17.58-4.46,26.46A250.49,250.49,0,0,0,51,327.17c-.18,9.07-.59,18.08-.88,27.13l-1,27.14Z"/><path class="cls-2" d="M657.15,767.34,655.21,642l-1.77-125.36L653.23,501l-.1-7.83,0-3.92c0-.82,0-1.43,0-2.13l.06-2a298.76,298.76,0,0,1,3.09-31.82,291.34,291.34,0,0,1,6.42-31.35A227.17,227.17,0,0,1,673,391.34a169.56,169.56,0,0,1,15.39-28.81,122.31,122.31,0,0,1,22-24.91,103.88,103.88,0,0,1,13.69-9.9,102.79,102.79,0,0,1,15.21-7.51c2.63-1.08,5.32-1.95,8-2.82l4.09-1.13c1.36-.38,2.74-.64,4.12-1a112.38,112.38,0,0,1,16.68-2.36c1.4-.13,2.79-.17,4.19-.22s2.84-.11,4.13-.11l7.83-.1,15.67-.18,31.33-.36,62.67-.72L1023.36,310l125.33-1.22c41.78-.39,83.56-1,125.34-1.63l1.07,0,1.09.19,1.12.19.88.16,1.67.35c1.1.24,2.14.49,3.18.75,2.07.54,4.11,1.11,6.11,1.77a123.66,123.66,0,0,1,11.74,4.44,118.13,118.13,0,0,1,21.82,12.52,111.19,111.19,0,0,1,18.75,17.23A108.17,108.17,0,0,1,1355.68,366a123.15,123.15,0,0,1,9.07,23.57c.51,2,1.09,4,1.52,6.06l1.19,6.1c.21,1,.35,2,.48,3.05l.42,3.06.4,3.05c.15,1,.19,2.1.29,3.15l.48,6.33c.06,1.93,0,3.71,0,5.58l0,11.06,0,22.12q0,44.25-.47,88.51l-.12,11.06-.06,5.53v.57l0,1,0,1.72c0,1.12-.06,2.2-.11,3.27a116.19,116.19,0,0,1-4.15,25,97.46,97.46,0,0,1-10.19,23.87,79.89,79.89,0,0,1-17.62,20.24,76.58,76.58,0,0,1-23.4,12.89c-2.08.64-4.16,1.37-6.26,1.9s-4.19,1-6.29,1.43l-6.29,1c-2.09.28-4.17.37-6.25.56s-4.18.21-6.28.23-4.32.1-6.05,0l-11.07-.53-22.12-1.13L1220.78,655l-22.12-1.22-44.24-2.54c-59-3.54-117.93-7.53-176.83-12.66l.08-3c59.08-2,118.11-2.84,177.11-3.24l44.25-.18,22.12,0,22.12,0,22.11,0,11.06.06c2,.06,3.38-.11,5-.19a47.69,47.69,0,0,0,4.76-.38c1.58-.23,3.2-.34,4.75-.63l4.62-.91,4.44-1.22c1.46-.44,2.84-1,4.27-1.49a49.23,49.23,0,0,0,14.88-8.88A51.8,51.8,0,0,0,1330,605.1a69.27,69.27,0,0,0,6.61-16.94,86.34,86.34,0,0,0,2.54-18.65l-.22-21.14q-.5-44.26-.48-88.53l0-22.14,0-11.07c0-1.82,0-3.73,0-5.49l-.32-4.69c-.07-.79-.07-1.56-.18-2.37l-.3-2.43-.29-2.44c-.09-.81-.19-1.62-.35-2.41l-.85-4.78c-.32-1.58-.74-3.12-1.09-4.69a92.79,92.79,0,0,0-6.38-17.8,80.61,80.61,0,0,0-23.4-28.73,88.68,88.68,0,0,0-16.21-10,94,94,0,0,0-8.84-3.65c-1.5-.55-3-1-4.48-1.45-.74-.21-1.48-.41-2.19-.59l-1-.25-.47-.1c-.11,0-.35-.07-.25-.06l2.17.17c-41.78-.61-83.56-1.24-125.34-1.64l-125.33-1.21L898,330.84l-62.67-.72L804,329.75l-15.67-.18-7.83-.09c-1.32,0-2.46,0-3.7,0s-2.43,0-3.64.11a95.42,95.42,0,0,0-14.35,1.68c-1.17.26-2.37.44-3.52.74l-3.49.88c-2.29.69-4.59,1.36-6.82,2.22a85.92,85.92,0,0,0-24.85,14.21,109.42,109.42,0,0,0-19.88,21.44,156.27,156.27,0,0,0-14.76,26c-8.29,18.38-13.77,38.23-17.35,58.38a284.86,284.86,0,0,0-3.75,30.44l-.12,1.9-.07,1.78-.05,3.92-.1,7.83-.21,15.66L662.09,642l-1.94,125.32Z"/><path class="cls-3" d="M498.65,679.07s156,154,320,0l-64-414s-68-196-164,0Z"/><path class="cls-2" d="M522.63,672a24.09,24.09,0,0,0-2.85-6.32,26,26,0,0,0-3.59-4.43l.06.07.15.15.35.35.8.77,1.72,1.61c1.18,1.09,2.4,2.19,3.65,3.27,2.49,2.18,5.08,4.33,7.72,6.44q7.92,6.32,16.4,12.05a255.73,255.73,0,0,0,35.38,20.11,220.06,220.06,0,0,0,37.84,13.66,188.07,188.07,0,0,0,39.27,5.81,171.75,171.75,0,0,0,19.78-.39c3.3-.21,6.57-.63,9.86-1s6.54-1,9.78-1.63c1.63-.31,3.26-.61,4.87-1s3.24-.72,4.85-1.13c3.21-.87,6.44-1.68,9.61-2.73s6.34-2.12,9.51-3.2l4.69-1.84,2.34-.92,2.32-1,4.63-2,4.58-2.2c.76-.37,1.53-.72,2.28-1.11l2.26-1.19,4.51-2.37c5.93-3.37,11.84-6.83,17.53-10.72a287.42,287.42,0,0,0,32.81-25.73L800,682l-56.86-415.1.5,2-.54-1.6-.62-1.72-1.31-3.48c-.9-2.32-1.84-4.64-2.81-6.94-2-4.61-4-9.17-6.28-13.63A183.23,183.23,0,0,0,717,216.06c-5.69-7.86-12.12-15-19.33-20.35s-15.13-8.45-23.15-8.23A36.13,36.13,0,0,0,662.35,190a57,57,0,0,0-11.79,6.47,100.73,100.73,0,0,0-10.91,9.22,144.66,144.66,0,0,0-9.93,11,227.9,227.9,0,0,0-17.45,24.76c-5.36,8.69-10.33,17.69-15.06,26.85l.58-1.63L548.3,471.94Q523.46,575,498.65,679.07Zm-29.69,35,5.71-27.9L541,472.19l42.51-208.71.16-.74.42-.89c4.54-9.61,9.37-19.12,14.68-28.44a245.08,245.08,0,0,1,17.8-27.16,159.13,159.13,0,0,1,10.72-12.68A116.94,116.94,0,0,1,640,182.11,75.17,75.17,0,0,1,655.34,173a54.67,54.67,0,0,1,18.32-4.45,51,51,0,0,1,19,2.53,65.3,65.3,0,0,1,16.5,8.23c9.91,6.81,17.81,15.25,24.7,24.08a203.81,203.81,0,0,1,17.94,27.86c2.61,4.81,5.05,9.7,7.36,14.65,1.15,2.48,2.27,5,3.34,7.5l1.59,3.82.78,1.95.8,2.08.28.75.22,1.29,71.14,412.9,1.63,9.49-7.36,7.14a326.17,326.17,0,0,1-36.21,30.45c-6.41,4.7-13.17,9-20,13.2l-5.24,3-2.62,1.5c-.88.48-1.79.94-2.68,1.41l-5.36,2.82L754,747.83l-2.74,1.31-2.79,1.22-5.6,2.42c-3.81,1.47-7.57,3-11.45,4.31s-7.77,2.57-11.69,3.76c-2,.57-4,1.07-6,1.61s-4,1-6,1.46c-4,1-8.06,1.68-12.1,2.44s-8.15,1.28-12.25,1.69a216.85,216.85,0,0,1-24.7,1.34,232.88,232.88,0,0,1-48.9-5.48A266.19,266.19,0,0,1,563.42,749a303,303,0,0,1-42.79-22.38q-10.23-6.4-20-13.64C498.06,711,495.5,709,492.94,707Z"/><path class="cls-3" d="M812.46,297.7s121.87,88.71,250,0l-50-238.48s-53.13-112.91-128.13,0Z"/><path class="cls-2" d="M836.15,289.73a23.62,23.62,0,0,0-7.76-11.32c-.49-.4-1.46-1.09-1.18-.88l0,0,.29.21.59.44,1.36,1c.95.65,1.91,1.31,2.92,2s2,1.31,3.05,2,2.08,1.29,3.14,1.92c4.23,2.54,8.6,5,13.07,7.21a228.21,228.21,0,0,0,27.67,11.85A207.83,207.83,0,0,0,938,315.67a196.74,196.74,0,0,0,29.82-1.1l7.41-1c1.24-.14,2.45-.41,3.68-.65l3.67-.73,3.68-.72c1.23-.25,2.43-.62,3.64-.92l7.28-1.87A214.65,214.65,0,0,0,1052.3,283l-7.3,18.33L1001.42,61.53l.83,2.49-.17-.39-.24-.5-.5-1.05L1000.26,60q-1.11-2.14-2.33-4.26c-1.62-2.82-3.35-5.6-5.19-8.27A97.09,97.09,0,0,0,980.5,32.68,58.39,58.39,0,0,0,965.91,22a36.24,36.24,0,0,0-16.33-3.94,36.93,36.93,0,0,0-8.48,1.05,46.58,46.58,0,0,0-8.44,3,73.23,73.23,0,0,0-15.94,10.42c-10.05,8.52-18.83,19.15-26.8,30.38l.83-1.78-39,117.25q-19.66,59.11-39.29,119.3Zm-30.65,33,7-25.08Q828.84,238.62,845,178.51L877.91,57.28l.22-.8.62-1c7.77-12.28,16.48-24.22,27.53-34.68A89.25,89.25,0,0,1,925.13,7.07a63.73,63.73,0,0,1,11.31-4.73,53.7,53.7,0,0,1,37.38,2.25A77.92,77.92,0,0,1,994.2,17.74,117.28,117.28,0,0,1,1010,34.8c2.34,3,4.54,6.17,6.63,9.38q1.56,2.41,3,4.9c.49.84,1,1.68,1.46,2.54l.72,1.31.36.68.41.8.45.89.39,1.6L1079.92,294l2.64,11.1-10,7.22A252.34,252.34,0,0,1,1009.19,346l-8.69,2.76c-1.46.45-2.89,1-4.36,1.34l-4.43,1.13-4.43,1.13c-1.48.37-2.95.77-4.45,1l-9,1.75a239.6,239.6,0,0,1-36.47,3.34,252.94,252.94,0,0,1-72.1-10.19,274.36,274.36,0,0,1-34.17-12.48c-5.58-2.44-11.06-5.1-16.51-8q-2-1.07-4.08-2.2c-1.36-.75-2.72-1.51-4.08-2.32Z"/><path class="cls-3" d="M1162,314.41s85.8,51.1,176,0l-35.2-137.35s-37.41-65-90.21,0Z"/><path class="cls-2" d="M1185.58,306.07a24.45,24.45,0,0,0-5.72-9.23,24.19,24.19,0,0,0-4.21-3.38c-1-.62-1-.6-.9-.54h0l.17.11a4,4,0,0,0,.37.24c.3.19.56.36.9.55.63.39,1.28.77,2,1.16,1.37.77,2.79,1.55,4.25,2.3,2.92,1.5,5.93,2.95,9,4.29a176.73,176.73,0,0,0,19,7.09,172.67,172.67,0,0,0,39.93,7.37,169.57,169.57,0,0,0,20.29-.09c3.37-.31,6.76-.54,10.1-1.08,3.38-.38,6.7-1.1,10-1.7a162,162,0,0,0,38.77-13.65l-8.15,19.15L1292.13,179.8l1.12,2.77c0-.13-.34-.65-.55-1l-.73-1.23q-.78-1.24-1.62-2.49c-1.13-1.65-2.36-3.24-3.61-4.8a59.42,59.42,0,0,0-8.35-8.29c-6-4.8-12.77-7.76-19.89-7.86a33.92,33.92,0,0,0-10.88,1.71,48,48,0,0,0-5.43,2.3l-1.36.67-.68.33-.65.4-2.64,1.6a27.58,27.58,0,0,0-2.59,1.77l-2.58,1.84c-1.63,1.39-3.31,2.71-4.93,4.15s-3.18,3-4.73,4.53l-4.54,4.84,1-1.79-28,66.53c-9.48,22.5-19,45.41-28.44,68.65Zm-31.48,32.29,7.92-23.95c7.45-22.53,14.77-45.41,22.16-68.69l22.55-70.83.27-.83.75-1,4.51-5.71c1.56-1.88,3.23-3.69,4.86-5.53s3.51-3.52,5.28-5.28l2.87-2.47c1-.81,1.89-1.68,3-2.41l3.12-2.28.79-.57.84-.52,1.68-1a63.27,63.27,0,0,1,7.07-3.74,51,51,0,0,1,16.18-4,46.7,46.7,0,0,1,17,2,57.81,57.81,0,0,1,15,7.19A78.85,78.85,0,0,1,1302.18,159c1.83,1.89,3.61,3.83,5.28,5.87.83,1,1.65,2.07,2.45,3.14.41.54.8,1.1,1.2,1.66s.75,1.06,1.29,1.93l.56.91.56,1.86,41.09,135.84,3.61,11.94-11.75,7.21a197.74,197.74,0,0,1-46.09,20.82c-4.1,1.14-8.2,2.37-12.38,3.24s-8.37,1.71-12.58,2.46a212.06,212.06,0,0,1-25.54,2.33,217.31,217.31,0,0,1-50.89-4.87,224.33,224.33,0,0,1-24.72-6.85c-4.08-1.37-8.12-2.9-12.17-4.55-2-.83-4.06-1.71-6.12-2.65C1155.36,339,1154.74,338.66,1154.1,338.36Z"/><path class="cls-3" d="M1266.06,540.6s85.8,44.12,176,0L1406.86,422s-37.4-56.15-90.2,0Z"/><path class="cls-2" d="M1289.57,532.11a24.35,24.35,0,0,0-11.46-13.41l-.66-.34h0l.18.11.4.23.93.5c.66.35,1.34.7,2.06,1.06,1.4.7,2.88,1.4,4.38,2.08,3,1.35,6.08,2.67,9.23,3.87A195.54,195.54,0,0,0,1314,532.6a191.78,191.78,0,0,0,60.84,6.92c3.4-.25,6.83-.4,10.21-.84,1.7-.21,3.41-.31,5.1-.6l5.07-.78a177.93,177.93,0,0,0,39.55-11.61l-8.62,19.63-29.72-120.23,1.38,2.94a10.08,10.08,0,0,0-.55-.88c-.25-.37-.49-.73-.76-1.1-.53-.75-1.1-1.5-1.69-2.23-1.16-1.48-2.43-2.9-3.74-4.27a55.81,55.81,0,0,0-8.55-7.26,36.85,36.85,0,0,0-20.09-6.78,39.7,39.7,0,0,0-10.88,1.34c-.9.25-1.8.58-2.71.86-.46.15-.92.28-1.37.45l-1.34.56c-.9.39-1.81.73-2.7,1.15l-2.65,1.36A88.62,88.62,0,0,0,1321,426.08l1.14-1.75-27.8,57.05c-9.42,19.34-18.92,39.11-28.28,59.22Zm-32.52,31.81,9-23.32c7.5-19.43,14.87-39.2,22.32-59.39s15-40.77,22.8-61.55l.28-.76.86-1a101.73,101.73,0,0,1,21.07-19l3.11-2c1.06-.62,2.18-1.19,3.28-1.78l1.65-.88c.57-.27,1.16-.51,1.73-.76,1.17-.5,2.32-1,3.51-1.48a56,56,0,0,1,15.23-3.34,51.81,51.81,0,0,1,15.88,1.32,59.15,59.15,0,0,1,14.66,5.74,74.65,74.65,0,0,1,12.62,8.79c1.93,1.66,3.79,3.39,5.56,5.24.89.92,1.76,1.87,2.61,2.86.43.48.86,1,1.29,1.51s.8,1,1.4,1.82l.69,1,.68,2,40.69,117,4.39,12.64-13,7a214,214,0,0,1-46.06,18.31l-6.06,1.51c-2,.54-4.06.87-6.1,1.32-4.07.9-8.19,1.49-12.31,2.17a243.67,243.67,0,0,1-99.15-7.1c-4.06-1.13-8.09-2.42-12.15-3.81-2-.7-4.06-1.43-6.13-2.23-1-.39-2.08-.81-3.14-1.25Z"/><path class="cls-3" d="M1031.65,638.48s85.81,38.81,176,0l-35.2-104.32s-37.4-49.4-90.21,0Z"/><path class="cls-2" d="M1043.53,616.53c-.39-.2-.76-.44-1.15-.62l-.44-.2,0,0,.19.09a3.92,3.92,0,0,0,.42.22l1,.47c.68.33,1.39.65,2.12,1,1.45.65,3,1.29,4.49,1.91,3.07,1.24,6.21,2.45,9.42,3.55,6.4,2.24,13,4.18,19.63,5.84a231,231,0,0,0,40.71,6.36c6.87.41,13.75.49,20.64.3s13.74-.83,20.56-1.79a196.5,196.5,0,0,0,40.17-10l-8.92,20-30.08-106.06,1.61,3s0,0,0,0l-.07-.1-.14-.21-.35-.47c-.26-.33-.51-.67-.79-1-.55-.67-1.14-1.36-1.75-2A52.06,52.06,0,0,0,1157,533a52.66,52.66,0,0,0-8.75-6.48,41.63,41.63,0,0,0-20.27-6,44.71,44.71,0,0,0-10.86,1.06c-.92.18-1.81.49-2.72.72l-1.37.37c-.45.13-.89.32-1.35.47l-2.7,1c-.89.38-1.77.79-2.66,1.18a87,87,0,0,0-20.13,13.07l1.23-1.67-27.58,49.83C1054.34,596.32,1049,606.4,1043.53,616.53Zm-22,44.8,10.11-22.85c7.55-17.06,15-34.46,22.46-52.31s15.14-36.08,23-54.49l.31-.73.92-1a99.94,99.94,0,0,1,21.49-17.1c1-.58,2.05-1.18,3.09-1.74l3.24-1.54c.54-.25,1.07-.53,1.63-.76l1.69-.65c1.14-.42,2.24-.91,3.41-1.27a61.28,61.28,0,0,1,14.54-2.9,59.43,59.43,0,0,1,29.41,5.59,72.24,72.24,0,0,1,12.79,7.62,73.38,73.38,0,0,1,5.76,4.7c.94.83,1.84,1.7,2.75,2.61.45.44.9.92,1.35,1.4l.69.75.37.42.19.22.26.32.8,1,.81,2.07L1223,633.32l5.2,13.23L1214,653.32a232,232,0,0,1-46,16.4c-7.94,1.92-16,3.36-24.1,4.51s-16.27,1.75-24.45,2.06a273.81,273.81,0,0,1-49-2.75c-8.12-1.2-16.2-2.73-24.25-4.68-4-1-8-2.05-12.1-3.23-2-.6-4-1.23-6.12-1.92-1-.34-2.07-.69-3.14-1.08l-1.63-.59-.88-.33-.46-.18-.06,0C1021.71,661.41,1022.29,661.67,1021.54,661.33Z"/></g><g id="dragonArm1-2"><path class="cls-1" d="M238.63,773s-481.93,318.5,76.73,580c0,0,462.12-164.28,110.39-580"/><path class="cls-2" d="M240,775.12c-6.47,4.68-12.85,9.7-19.11,14.77s-12.42,10.29-18.47,15.62-12,10.74-17.84,16.3c-3,2.75-5.8,5.59-8.69,8.39s-5.71,5.67-8.5,8.56c-22.47,23-43.19,47.65-60.71,74.23a368.25,368.25,0,0,0-23.63,41.18,273.87,273.87,0,0,0-17,43.73,214.88,214.88,0,0,0-8.15,45.47,185.73,185.73,0,0,0,16,88.82,236.15,236.15,0,0,0,22.78,39.6c2.27,3.09,4.51,6.2,6.8,9.28l7.31,8.94,1.83,2.24c.62.73,1.29,1.43,1.93,2.16l3.9,4.29c2.6,2.85,5.12,5.78,7.93,8.47l8.22,8.23c2.8,2.69,5.73,5.26,8.59,7.9l4.3,3.94c1.42,1.33,3,2.53,4.45,3.8l9,7.53c1.47,1.28,3,2.46,4.6,3.66l4.65,3.59,4.65,3.59c1.56,1.18,3.07,2.42,4.69,3.53l9.61,6.84,4.8,3.41c1.59,1.15,3.28,2.19,4.91,3.28l9.87,6.5c1.65,1.07,3.27,2.2,4.95,3.22l5.06,3.1c6.75,4.1,13.39,8.35,20.34,12.17a935.83,935.83,0,0,0,85,43l-15.55-.75,2.17-.87,2.41-1c1.62-.69,3.24-1.4,4.88-2.12,3.26-1.46,6.53-3,9.78-4.52,6.52-3.11,13-6.44,19.34-9.88,12.75-6.91,25.2-14.38,37.24-22.39s23.63-16.57,34.76-25.58a399.45,399.45,0,0,0,31.66-28.59c19.91-20,37.36-42,51-65.7a241.3,241.3,0,0,0,28.53-76l.88-5c.3-1.68.62-3.36.8-5.06.41-3.38.89-6.77,1.26-10.17s.5-6.84.79-10.27.22-6.88.34-10.33a299.52,299.52,0,0,0-2.62-41.71c-1.18-7-2.14-14-3.76-20.89-1.27-7-3.19-13.89-4.91-20.85-.94-3.46-2-6.89-3.05-10.35l-1.53-5.19c-.52-1.73-1.14-3.43-1.71-5.15l-3.49-10.3c-1.22-3.42-2.59-6.8-3.88-10.21-2.47-6.87-5.45-13.56-8.28-20.33-1.37-3.41-3-6.71-4.54-10.06L492,891.08c-1.62-3.32-3.31-6.61-5-9.93s-3.25-6.66-5-9.94l-5.29-9.82-2.65-4.93c-.85-1.66-1.78-3.28-2.71-4.89l-5.57-9.73c-1.87-3.24-3.67-6.54-5.65-9.72l-5.83-9.64c-2-3.2-3.82-6.49-5.89-9.63-4.08-6.32-8-12.78-12.14-19.13s-8.33-12.64-12.42-19.07l3.82-3.23c5.54,5.26,11,10.61,16.45,16,1.38,1.32,2.69,2.72,4,4.1l3.95,4.17L460,804c2.65,2.77,5.16,5.68,7.69,8.56l7.58,8.68c2.58,2.87,5,5.88,7.39,8.87l7.28,9c2.48,3,4.72,6.11,7.05,9.19l6.94,9.3c1.18,1.54,2.25,3.15,3.37,4.74l3.31,4.79c2.18,3.2,4.41,6.39,6.57,9.62l6.26,9.87c2.08,3.3,4.2,6.58,6.1,10,3.87,6.8,7.92,13.52,11.44,20.56,1.79,3.51,3.64,7,5.37,10.53l5,10.75c.82,1.8,1.7,3.58,2.47,5.41l2.28,5.5c1.47,3.69,3,7.35,4.44,11.09,2.66,7.53,5.5,15,7.71,22.75,2.46,7.66,4.23,15.55,6.2,23.4a305,305,0,0,1,6.63,48.54,254.8,254.8,0,0,1-2,49.63,258.93,258.93,0,0,1-11.52,48.66l-2,5.92-2.3,5.82-2.31,5.81c-.82,1.92-1.69,3.81-2.56,5.7l-2.6,5.68c-.9,1.87-1.88,3.7-2.82,5.56l-2.84,5.55c-1,1.83-2,3.61-3,5.42-16.38,28.88-37.66,54.3-61.37,76.18l-2.22,2.07-2.27,2-4.53,4c-3,2.65-6.14,5.19-9.22,7.76s-6.29,5-9.44,7.45-6.37,4.84-9.62,7.16c-12.91,9.38-26.26,18-39.91,26.06s-27.61,15.4-41.86,22.17c-7.13,3.4-14.34,6.61-21.63,9.71q-5.46,2.33-11,4.51-2.79,1.1-5.63,2.16l-2.89,1.06-3.15,1.12-8.17,2.89-7.37-3.64c-29.6-14.63-58.76-30.36-87-47.94-7.12-4.25-14-9-20.95-13.53l-5.2-3.45c-1.73-1.15-3.41-2.4-5.12-3.6l-10.18-7.27c-1.69-1.23-3.41-2.39-5.07-3.67l-5-3.83-9.93-7.65c-1.68-1.25-3.26-2.64-4.88-4l-4.83-4-4.83-4c-1.61-1.34-3.23-2.66-4.77-4.1l-9.35-8.47c-1.55-1.43-3.15-2.78-4.64-4.28l-4.5-4.46c-3-3-6-5.9-8.94-9L103,1229c-2.92-3-5.57-6.39-8.3-9.64l-4.07-4.9c-.67-.82-1.37-1.62-2-2.46l-1.92-2.56L79,1199.21c-2.42-3.52-4.77-7.1-7.14-10.64a261.32,261.32,0,0,1-23.62-45.73,213.46,213.46,0,0,1-13.07-50,207.19,207.19,0,0,1-.41-51.53,237.15,237.15,0,0,1,11.4-49.65,294,294,0,0,1,20.48-45.94,364.32,364.32,0,0,1,26.93-41.86c19.67-26.61,42.24-50.66,66.33-72.8,3-2.77,6.09-5.47,9.14-8.19s6.16-5.38,9.3-8c6.23-5.28,12.6-10.4,19-15.44,12.89-10,26-19.62,39.89-28.44Z"/><path class="cls-1" d="M346,1022.48s668.22-87.58,50.95-509.77c0,0-605.54-33.21-279.55,441.09"/><path class="cls-2" d="M345.65,1020c8.3-1.41,16.66-3.11,24.94-4.9s16.56-3.7,24.79-5.75q24.69-6.14,48.91-13.81c32.24-10.2,63.83-22.47,93.46-38a347,347,0,0,0,42.39-26.09c13.27-9.74,25.64-20.55,36-32.77A139.79,139.79,0,0,0,630,879.43a113,113,0,0,0,9.91-21,107.22,107.22,0,0,0,5.57-45.15c-1.37-15.3-5.74-30.47-12-45a205.84,205.84,0,0,0-10.78-21.39c-4-7-8.28-13.84-12.94-20.51-18.54-26.76-41.23-51.07-65.31-74s-50.06-44.13-76.75-64.46q-20-15.23-40.68-29.74t-41.8-28.35l10.58,3.6-5.27-.09H385c-3.7,0-7.42.07-11.14.15q-11.18.27-22.37.89-22.38,1.18-44.63,3.79a674.5,674.5,0,0,0-87.26,15.7C191.24,561,163.7,570.2,138.51,582.5a238.49,238.49,0,0,0-35.46,21.06,161.34,161.34,0,0,0-29.24,26.8,132.94,132.94,0,0,0-20.47,32.89A130.31,130.31,0,0,0,47,681.82a146.22,146.22,0,0,0-3.88,19.67A184.51,184.51,0,0,0,41.68,722c-.08,6.94.21,14,.81,21l.51,5.3.66,5.31c.18,1.78.48,3.55.73,5.33s.5,3.55.84,5.33c1.15,7.12,2.75,14.22,4.39,21.35a443.43,443.43,0,0,0,12.7,42.52c2.53,7,5.15,14.05,7.93,21.05,1.39,3.49,2.78,7,4.27,10.46l2.2,5.23,2.25,5.2c6,13.88,12.57,27.65,19.36,41.35s13.92,27.29,21.1,41l-4.12,2.83Q100,937.69,86.09,919t-26.6-38.52l-3.15-5-3-5c-2-3.35-4-6.76-6-10.17s-3.86-6.87-5.77-10.32-3.67-7-5.51-10.51a406.43,406.43,0,0,1-19.2-43.89,301.08,301.08,0,0,1-13-47.22c-1.47-8.17-2.6-16.46-3.28-24.87a205.06,205.06,0,0,1-.35-25.55,189.94,189.94,0,0,1,3-25.85,176.88,176.88,0,0,1,6.92-25.5A171.09,171.09,0,0,1,21,622.22a178,178,0,0,1,14.45-22.35A192.67,192.67,0,0,1,52.78,580a220.89,220.89,0,0,1,19.53-17.17,261.2,261.2,0,0,1,43.07-26.92c29.91-15,61.28-24.73,92.73-31.49,15.74-3.37,31.54-6,47.34-7.95s31.61-3.44,47.41-4.36,31.59-1.4,47.37-1.48q11.85,0,23.7.27c4,.1,7.92.25,11.9.41l6,.27,3,.17,3.21.2,6.13.4,4.45,3.2c14,10.06,27.93,20.2,41.72,30.59s27.38,21.05,40.8,32a940.78,940.78,0,0,1,77.34,69.74c12.23,12.45,24,25.38,35.25,39,2.82,3.36,5.52,6.86,8.28,10.29l4,5.26,2,2.63,2,2.68c5.28,7.09,10.24,14.47,15,22s9.24,15.3,13.37,23.29a237.68,237.68,0,0,1,11.12,24.76c6.46,17,10.93,35.2,11.77,53.94a136.59,136.59,0,0,1-1.71,28.11,127.6,127.6,0,0,1-7.7,27.06,136.49,136.49,0,0,1-13,24.55,162.11,162.11,0,0,1-17,21.4,198.61,198.61,0,0,1-19.67,18.33,258.72,258.72,0,0,1-21.4,15.72,349.2,349.2,0,0,1-45.89,25.25c-31.57,14.51-64.4,25.28-97.62,33.93q-24.93,6.4-50.19,11.16c-16.85,3.18-33.7,5.91-50.79,7.81Z"/></g><g id="dragonHead"><path class="cls-1" d="M416.81,1091.88s-18,189,147,219l90,303.14h822.09s60.21-12.11,63.11-87.12v-105l-60.11-30,60.11-81v-339s-12.11-84-156.12-90c0,0-312.51,9-405.28-51,0,0-161.78-129-290.79-66C686.84,764.85,458.81,815.85,416.81,1091.88Z"/><path class="cls-2" d="M419.29,1092.19l-.17,2.12-.14,2.23c-.08,1.5-.16,3-.2,4.49-.11,3-.15,6-.15,9q0,9,.61,18a276,276,0,0,0,4.67,35.78c4.67,23.58,12.63,46.64,24.9,67.28a178,178,0,0,0,10,14.95,155.82,155.82,0,0,0,11.53,13.74,142.85,142.85,0,0,0,13.06,12.27c2.26,2,4.67,3.73,7,5.56s4.84,3.5,7.37,5.08a158.34,158.34,0,0,0,32,16,200.55,200.55,0,0,0,34.63,9.17l1.79.32.57,1.8,23.51,75.48L614,1460.93l47.87,150.71-8.06-6q102.76-2,205.52-3.32l205.52-2.1,205.52-1.92,205.53-1.74-3.45.34-.14,0,.06,0,.17-.05.49-.13,1.12-.34c.77-.24,1.59-.52,2.41-.83,1.64-.62,3.31-1.31,4.94-2.1a65.43,65.43,0,0,0,24.84-20.47,73,73,0,0,0,5.63-9.26c.75-1.67,1.62-3.27,2.25-5,.33-.87.7-1.71,1-2.58l.89-2.65.45-1.32.37-1.37.76-2.72c.43-1.86.83-3.72,1.21-5.6l.46-2.87c.15-1,.34-1.9.41-2.88l.31-2.93.16-1.46c0-.49.06-.94.09-1.41l.15-2.8.09-1.4c0-.5,0-1.12,0-1.68l0-6.88-.1-13.75-.21-27.5-.4-55,10.61,17.16-60.33-29.56-20.93-10.26,13.92-19.06,59.49-81.47-4,12.18-.82-84.76-.94-84.75-2-169.52.25,3.45c.09.61,0,.34,0,.38l-.06-.21c0-.16-.11-.42-.18-.67s-.14-.53-.24-.82-.16-.56-.27-.88c-.41-1.21-.86-2.49-1.43-3.78a62.1,62.1,0,0,0-3.91-7.77,78.38,78.38,0,0,0-11.14-14.45c-8.66-9-19.7-16.31-32-22a180.12,180.12,0,0,0-40.11-12.56,289.89,289.89,0,0,0-43.94-4.82l1.82,0-6.67.17-6.55.14-13.06.19q-13,.13-26.07.13-26-.06-52.09-.76c-34.73-1-69.49-2.74-104.3-5.82q-26.12-2.26-52.26-5.7-13.07-1.73-26.17-3.83t-26.2-4.69a476.55,476.55,0,0,1-52.54-13.26c-8.77-2.82-17.56-6-26.36-9.83A173.06,173.06,0,0,1,965,850.36l-1.14-.76-.72-.58-1.52-1.23-1.74-1.38-3.6-2.77q-3.64-2.77-7.42-5.5-7.51-5.43-15.32-10.6Q918,817.21,901.67,808c-10.88-6.07-21.95-11.76-33.24-16.86A351.75,351.75,0,0,0,834,777.57c-5.83-2-11.71-3.7-17.6-5.3s-11.84-3-17.81-4.14a221.13,221.13,0,0,0-36-4.07c-6-.13-12,0-17.95.39s-11.87,1.21-17.74,2.25a172.62,172.62,0,0,0-17.35,4.22,169.93,169.93,0,0,0-16.78,6.22l-2.59,1.11-.43,0-.25,0-.34.07-.74.15-1.54.34-3.15.75c-2.12.53-4.26,1.09-6.4,1.7-4.28,1.2-8.56,2.53-12.82,4-8.53,2.85-17,6.09-25.31,9.65a365,365,0,0,0-48.34,25.2,358.09,358.09,0,0,0-83.06,71.35,369,369,0,0,0-58.07,93.91,412.87,412.87,0,0,0-18.56,52.46c-.61,2.24-1.28,4.47-1.86,6.72l-1.72,6.76c-1.2,4.49-2.14,9-3.19,13.58s-1.84,9.12-2.78,13.67S420.1,1087.62,419.29,1092.19Zm-5-.62c.74-4.66,1.43-9.34,2.21-14s1.62-9.26,2.58-13.87,1.82-9.23,2.94-13.8l1.58-6.88c.54-2.29,1.16-4.56,1.74-6.84,2.3-9.13,5-18.17,7.81-27.16.7-2.25,1.5-4.47,2.24-6.7s1.47-4.48,2.31-6.69c1.62-4.43,3.18-8.88,5-13.25a403.77,403.77,0,0,1,55.43-98.85q8.72-11.29,18.18-22c6.32-7.14,13-14,19.82-20.65a393.26,393.26,0,0,1,93.19-67q12.87-6.66,26.32-12.3,6.74-2.82,13.66-5.34c2.31-.84,4.64-1.64,7-2.42,1.19-.39,2.38-.77,3.6-1.14l1.85-.55,1-.28,1.11-.29-3,1a197.61,197.61,0,0,1,19.3-8.81,203.61,203.61,0,0,1,20.23-6.51,210.58,210.58,0,0,1,20.81-4.2c7-1,14-1.66,21.07-2a245.19,245.19,0,0,1,41.93,1.79c6.92.85,13.78,2,20.58,3.33s13.54,2.91,20.2,4.7a414,414,0,0,1,76.65,29.24q18.33,9,35.84,19.57c5.85,3.49,11.61,7.14,17.34,10.9,2.86,1.89,5.7,3.81,8.55,5.79l4.28,3,2.16,1.57,1.1.82,1.24.94-1.86-1.34a128.68,128.68,0,0,0,19.41,9.36c7.05,2.79,14.51,5.23,22.15,7.42s15.5,4.14,23.45,5.9,16,3.31,24.17,4.75,16.35,2.7,24.59,3.88,16.54,2.25,24.87,3.2,16.67,1.83,25,2.59,16.76,1.52,25.18,2.15c33.65,2.53,67.52,4.08,101.45,4.92q25.44.68,50.92.77,12.73.09,25.45,0l12.7-.11,12.52-.21,1.19,0,.63,0a340.49,340.49,0,0,1,52,6.33,229.91,229.91,0,0,1,51.61,17.18c16.73,8.17,32.9,19.1,46.36,33.62a126.48,126.48,0,0,1,17.67,24.2,110.32,110.32,0,0,1,6.59,14c1,2.44,1.82,5,2.62,7.6.2.64.38,1.35.57,2s.37,1.37.55,2.11.34,1.43.51,2.26l.25,1.27c.1.54.15.76.32,1.86l.26,1.8,0,1.66-2,169.52-1,84.75-.81,84.76-.07,6.93-4,5.25-60.73,80.55-7-29.32,59.89,30.44,10.7,5.44-.08,11.72-.41,55.38-.2,27.69-.1,13.84,0,6.92c0,.59,0,1.12,0,1.76l-.13,2-.28,4.08c-.06.68-.09,1.37-.16,2l-.24,2-.48,3.93c-.13,1.3-.4,2.62-.62,3.93l-.7,3.93q-.84,3.93-1.84,7.86l-1.14,3.9-.58,2-.68,1.94-1.38,3.86c-.49,1.28-1,2.54-1.58,3.81-1,2.56-2.32,5-3.53,7.51a108.17,108.17,0,0,1-8.94,14.14,100.91,100.91,0,0,1-38.87,31c-2.53,1.16-5.13,2.2-7.81,3.15-1.34.48-2.71.92-4.13,1.35-.7.21-1.44.41-2.2.61l-1.18.3-.67.16-.92.2-1.65.36-1.79,0-205.53-1.74-205.52-1.92-205.52-2.1q-102.75-1.3-205.52-3.32l-6.43-.13-1.63-5.89L603.64,1464l-21.23-76.16-21.49-76.09,2.36,2.12a209,209,0,0,1-35.45-10.11,176.63,176.63,0,0,1-16.81-7.64l-2.06-1-2-1.13c-1.34-.76-2.69-1.49-4-2.27-2.63-1.61-5.28-3.17-7.81-4.93s-5.05-3.53-7.54-5.33-4.87-3.77-7.18-5.81a147.39,147.39,0,0,1-13.3-12.79,162.63,162.63,0,0,1-11.78-14.17,179.62,179.62,0,0,1-10.14-15.37A205.07,205.07,0,0,1,429.61,1200a249.06,249.06,0,0,1-9.9-35.31,292.45,292.45,0,0,1-5-36.31c-.45-6.09-.75-12.2-.83-18.32q-.06-4.59,0-9.18c0-1.54.09-3.07.15-4.61l.12-2.3.07-1.16Z"/><ellipse class="cls-3" cx="812.85" cy="1091.88" rx="138.01" ry="165.02" transform="translate(-463.58 1564.8) rotate(-73.66)"/><path class="cls-2" d="M973.6,1139a135,135,0,0,1-31,51.64A162.21,162.21,0,0,1,893,1225.8a178.88,178.88,0,0,1-59.92,15.77,190.4,190.4,0,0,1-62.6-5.25,209.05,209.05,0,0,1-58.45-25,187.52,187.52,0,0,1-48.17-43.24,159.47,159.47,0,0,1-29.23-59.73,141.06,141.06,0,0,1-4-34.07,136.85,136.85,0,0,1,4.62-34.41,144.73,144.73,0,0,1,33.77-60.64,159.57,159.57,0,0,1,26.31-22.78,174.62,174.62,0,0,1,30.27-16.65,181.56,181.56,0,0,1,66.55-14.23,199.2,199.2,0,0,1,66.5,9.91,183.8,183.8,0,0,1,58.4,31.89,174.32,174.32,0,0,1,42.09,50.29,166.4,166.4,0,0,1,19.88,60.4A142,142,0,0,1,973.6,1139Zm-4.8-1.41a100.48,100.48,0,0,0,3.24-28.78,102.63,102.63,0,0,0-5-28.18A113.46,113.46,0,0,0,955,1055.12a130.22,130.22,0,0,0-17.38-21.68,153.51,153.51,0,0,0-20.85-17.65,186.44,186.44,0,0,0-22.94-13.92,228.21,228.21,0,0,0-49.17-18.44,198.25,198.25,0,0,0-51.23-5.8A168,168,0,0,0,743.48,986a128.15,128.15,0,0,0-22.91,10.1,110.74,110.74,0,0,0-20.12,14.4,99.49,99.49,0,0,0-16,18.56,92.27,92.27,0,0,0-10.72,22.08,100.15,100.15,0,0,0-3.09,49.45,125.13,125.13,0,0,0,20.12,47.87A156.86,156.86,0,0,0,728.43,1187a182,182,0,0,0,49.12,25.31,204.84,204.84,0,0,0,55.12,10.45,165.75,165.75,0,0,0,56.57-6.78c18.38-5.67,35.88-15.26,50-28.77a109.53,109.53,0,0,0,18.24-22.78A105.07,105.07,0,0,0,968.8,1137.59Z"/><ellipse class="cls-3" cx="1226" cy="1066.21" rx="58.59" ry="70.05" transform="translate(-142.01 1942.82) rotate(-73.66)"/><path class="cls-2" d="M1295.62,1086.62a68.28,68.28,0,0,1-13.54,22.49,82.26,82.26,0,0,1-21,16.77,78.43,78.43,0,0,1-55.12,8.55,96.27,96.27,0,0,1-27.5-10.54A87.89,87.89,0,0,1,1155,1104.2a77.12,77.12,0,0,1-15-28.77,69.84,69.84,0,0,1-.44-34.55,76.26,76.26,0,0,1,16.36-31.49,83,83,0,0,1,27.91-21,83.92,83.92,0,0,1,33-7.76,88.46,88.46,0,0,1,32.62,5.4,76.82,76.82,0,0,1,27.45,17.41,75,75,0,0,1,10.17,12.58,81.34,81.34,0,0,1,7.2,14.16,84.63,84.63,0,0,1,5.69,29.43A76.89,76.89,0,0,1,1295.62,1086.62Zm-4.8-1.41a34.64,34.64,0,0,0-2.81-23,41.09,41.09,0,0,0-15.26-16.24,57.8,57.8,0,0,0-9.52-4.8,93.38,93.38,0,0,0-9.56-3.21,174.55,174.55,0,0,0-18.22-4,100.58,100.58,0,0,0-17.35-1.27,77.79,77.79,0,0,0-16.42,1.82,40.3,40.3,0,0,0-14.37,6.11,26.27,26.27,0,0,0-9.34,11.5,30.89,30.89,0,0,0-2,15.51,42.22,42.22,0,0,0,5.91,16.91,57.11,57.11,0,0,0,13,15.06,68.72,68.72,0,0,0,18.17,10.82,95,95,0,0,0,21.25,5.93,66.2,66.2,0,0,0,23-.28,45.51,45.51,0,0,0,21.33-10.37A38.89,38.89,0,0,0,1290.82,1085.21Z"/><ellipse class="cls-3" cx="1425.01" cy="1066.21" rx="70.05" ry="58.59" transform="translate(-242.36 443.86) rotate(-16.34)"/><path class="cls-2" d="M1360.18,1085.21a39,39,0,0,0,12.15,20.51,45.59,45.59,0,0,0,21.34,10.37,66.2,66.2,0,0,0,23,.28,95,95,0,0,0,21.25-5.93,68.66,68.66,0,0,0,18.16-10.82,57.11,57.11,0,0,0,13-15.06,42.4,42.4,0,0,0,5.92-16.91,31.11,31.11,0,0,0-2-15.51,26.34,26.34,0,0,0-9.34-11.5,40.27,40.27,0,0,0-14.38-6.11,77.69,77.69,0,0,0-16.41-1.82,100.58,100.58,0,0,0-17.35,1.27,174,174,0,0,0-18.22,4,92.57,92.57,0,0,0-9.56,3.21,57.41,57.41,0,0,0-9.52,4.8,41,41,0,0,0-15.26,16.24A34.64,34.64,0,0,0,1360.18,1085.21Zm-4.8,1.41a76.89,76.89,0,0,1-4.39-27,84.61,84.61,0,0,1,5.68-29.43,82.09,82.09,0,0,1,7.21-14.16,75,75,0,0,1,10.17-12.58A76.74,76.74,0,0,1,1401.5,986a88.46,88.46,0,0,1,32.62-5.4,84,84,0,0,1,33,7.76,83,83,0,0,1,27.9,21,76.15,76.15,0,0,1,16.36,31.49,69.72,69.72,0,0,1-.43,34.55,77.14,77.14,0,0,1-15,28.77,87.89,87.89,0,0,1-23.46,19.69,96.27,96.27,0,0,1-27.5,10.54,78.45,78.45,0,0,1-55.12-8.55,82.21,82.21,0,0,1-21-16.77A68.31,68.31,0,0,1,1355.38,1086.62Z"/><path class="cls-4" d="M1098,1353.19s14,86.21,102.51,37.28L1226,1180.78Z"/><path class="cls-2" d="M1122.33,1359.11a24.61,24.61,0,0,0,.72-5.26,23.84,23.84,0,0,0-.09-2.68c0-.44-.09-.88-.15-1.31s-.17-1-.14-.86v.29l.07.57c.08.44.13.86.23,1.34.17.92.38,1.89.61,2.86.44,1.94,1.05,3.87,1.67,5.76a55.41,55.41,0,0,0,4.74,10.29,33.39,33.39,0,0,0,6.07,7.55,23.12,23.12,0,0,0,7.31,4.58,31.76,31.76,0,0,0,9.57,1.94c.92,0,1.85,0,2.79,0a9,9,0,0,0,1.45-.08l1.49-.11a58.25,58.25,0,0,0,6.15-.83,11.85,11.85,0,0,0,1.59-.33l1.61-.4c1.08-.27,2.16-.5,3.25-.79,2.19-.74,4.4-1.35,6.62-2.15s4.46-1.7,6.7-2.65l6.73-3.08-9.69,14.38,34.82-208.56,17.24,6.88c-44.47,54.55-89.9,110-135.67,166.69Zm-41.68,19.68,17.39-25.6c39.53-58.21,79.41-117.74,120.25-178.14l20-29.6-2.78,36.48-16.07,210.83-.71,9.24-9,5.14-8,4.6c-2.75,1.48-5.63,2.84-8.45,4.26s-5.93,2.56-8.91,3.83c-1.55.58-3.14,1.1-4.71,1.65l-2.38.8a25.3,25.3,0,0,1-2.42.75,100.16,100.16,0,0,1-10.18,2.38l-2.64.45c-.89.14-1.75.33-2.68.39l-5.52.47a75.54,75.54,0,0,1-23.31-2.36,67.81,67.81,0,0,1-22.14-10.57,78.48,78.48,0,0,1-16.76-16.52A101.45,101.45,0,0,1,1080.65,1378.79Z"/><path class="cls-4" d="M1521.9,1353.19s-14,86.21-102.52,37.28l-25.45-209.69Z"/><path class="cls-2" d="M1539.28,1378.79a100.88,100.88,0,0,1-11,18.48,78.48,78.48,0,0,1-16.76,16.52,67.81,67.81,0,0,1-22.14,10.57,75.54,75.54,0,0,1-23.31,2.36l-5.52-.47c-.93-.06-1.79-.25-2.68-.39l-2.64-.45a100,100,0,0,1-10.17-2.38,24.64,24.64,0,0,1-2.43-.75l-2.37-.8c-1.58-.55-3.17-1.07-4.72-1.65-3-1.27-6-2.48-8.91-3.83s-5.7-2.78-8.44-4.26l-8-4.6-9-5.14-.71-9.24-16.07-210.83-2.78-36.48,20,29.6c40.84,60.4,80.72,119.93,120.26,178.14Zm-17.38-25.6c-45.78-56.73-91.21-112.14-135.68-166.69l17.24-6.88,34.82,208.56-9.69-14.38,6.73,3.08c2.24.95,4.48,1.75,6.7,2.65s4.43,1.41,6.62,2.15c1.09.29,2.17.52,3.25.79l1.61.4a11.85,11.85,0,0,0,1.59.33,58.08,58.08,0,0,0,6.16.83l1.48.11a9.06,9.06,0,0,0,1.45.08c.94,0,1.87,0,2.79,0a31.76,31.76,0,0,0,9.57-1.94,23.12,23.12,0,0,0,7.31-4.58,33.39,33.39,0,0,0,6.07-7.55,54.77,54.77,0,0,0,4.74-10.29c.62-1.89,1.23-3.82,1.67-5.76.23-1,.44-1.94.61-2.86.1-.48.15-.9.23-1.34l.07-.57V1349c0-.19-.09.48-.14.86s-.11.87-.15,1.31a23.34,23.34,0,0,0,.64,7.94Z"/><path class="cls-2" d="M1457.91,1403.41q-39.75,2.23-79.5,4.15l-39.76,1.93-39.75,1.76c-26.5,1.18-53,2.37-79.51,3.43s-53,2.1-79.51,3.08l-4.75.17-5.73-3.84-2.61-1.74-3-2-3.17-2-3.24-1.91c-2.15-1.29-4.39-2.51-6.59-3.77l-6.73-3.63c-9-4.77-18.34-9.29-27.77-13.55a611.08,611.08,0,0,0-58-22.87c-19.8-6.6-39.9-12.33-60.16-17.52l-60.87-15.3c-20.32-5-40.58-10.47-61-15.65l-7.64-2c-2.55-.67-5.09-1.36-7.65-2-5.12-1.25-10.23-2.57-15.35-3.87l-7.67-2-7.69-1.9-15.4-3.9c-10.27-2.61-20.58-5.14-30.88-7.86-5.16-1.33-10.33-2.54-15.5-3.9s-10.34-2.67-15.51-4.08q-15.54-3.94-31.12-8.31c-10.4-2.81-20.81-5.7-31.22-9.09l.46-5c10.86-1.26,21.71-2,32.57-2.68,5.43-.26,10.85-.44,16.28-.57s10.85-.22,16.28-.32q16.26,0,32.53.53c5.42.21,10.83.55,16.25.82s10.84.56,16.24,1c21.63,1.73,43.24,4.07,64.72,7.44,21.52,3.17,42.9,7.46,64.05,12.73,42.33,10.62,83.33,26.41,123.5,43.89q15.07,6.56,30,13.53c9.92,4.73,19.8,9.55,29.53,14.76s19.4,10.57,28.87,16.46l7.09,4.47c2.34,1.56,4.69,3.07,7,4.68l3.5,2.42,3.5,2.5,3.53,2.62c1.24,1,2.24,1.71,3.84,3l-10.49-3.66q39.75,1.46,79.51,3.07c26.5,1.06,53,2.25,79.51,3.43l39.75,1.76,39.76,1.93q39.75,1.9,79.5,4.15Z"/><path class="cls-4" d="M1094.88,1346.62s-26.7-57.75-105.86-4.71l6.82,152.94Z"/><path class="cls-2" d="M1070,1344.67a24.47,24.47,0,0,0,.79,8.53,25,25,0,0,0,1.48,4c.29.6.09.17.15.31h0l0,0,0,0,0,0a.7.7,0,0,0-.06-.23c-.07-.2-.19-.45-.31-.71-.25-.52-.57-1.09-.9-1.67a31.37,31.37,0,0,0-2.36-3.36,27.28,27.28,0,0,0-6-5.47c-4.4-3-9.92-4.71-16.8-4.81-.84,0-1.74.06-2.62.07l-1.33,0-1.37.16c-.92.11-1.83.17-2.77.31l-2.85.52c-.48.09-.95.14-1.43.27l-1.46.36-2.93.72-3,.94c-1,.33-2,.56-3,1a147.05,147.05,0,0,0-24.12,11.48l8.1-16-1.62,153.32-18-5,53.06-70.26q26.88-35.64,54.17-72.5Zm38.8-21.23-13.88,23.18q-22.31,37.25-44.86,75.73l-46,78-15,25.41-3-30.45-15.28-152.56-.94-9.35,9-6.68a185.24,185.24,0,0,1,28.74-17.79c1.27-.69,2.68-1.24,4-1.86l4.08-1.79,4.26-1.6,2.15-.8c.71-.26,1.47-.46,2.21-.7l4.48-1.35c1.52-.41,3.1-.75,4.66-1.11l2.34-.53,2.43-.4c1.63-.24,3.23-.55,4.9-.7a79.36,79.36,0,0,1,20.78.36,73.06,73.06,0,0,1,21,6.5,74.28,74.28,0,0,1,18.21,12.52A80.92,80.92,0,0,1,1108.76,1323.44Z"/><path class="cls-4" d="M924.7,1320.26s-26.71-57.75-105.87-4.71l6.83,152.94Z"/><path class="cls-2" d="M899.77,1318.31a24.47,24.47,0,0,0,.79,8.53,24.77,24.77,0,0,0,1.49,4c.29.6.08.17.15.3h0l0,0,0,0v0a2.19,2.19,0,0,0-.07-.23c-.07-.19-.19-.44-.31-.7-.25-.53-.57-1.1-.9-1.67a30,30,0,0,0-2.36-3.36,27.33,27.33,0,0,0-6-5.48c-4.4-3-9.92-4.7-16.8-4.8-.84-.05-1.74,0-2.61.06l-1.33,0-1.38.16c-.91.11-1.83.17-2.77.31l-2.84.52c-.48.09-1,.14-1.44.26l-1.46.37-2.93.72-3,.93c-1,.34-2,.56-3,1A147.51,147.51,0,0,0,829,1330.76l8.1-16-1.62,153.32-18-5,53.06-70.26q26.88-35.64,54.18-72.5Zm38.81-21.23-13.88,23.18q-22.31,37.24-44.87,75.73l-46,78-15,25.42-3.05-30.45-15.28-152.57-.93-9.34,9-6.69a185.42,185.42,0,0,1,28.73-17.79c1.27-.68,2.68-1.23,4-1.85l4.08-1.79,4.27-1.61,2.14-.79c.71-.26,1.48-.47,2.21-.7l4.49-1.35c1.52-.41,3.1-.75,4.65-1.12l2.35-.52,2.42-.4c1.64-.24,3.23-.56,4.91-.71a79.73,79.73,0,0,1,20.77.37,73.06,73.06,0,0,1,21,6.5,74.52,74.52,0,0,1,18.22,12.52A81,81,0,0,1,938.58,1297.08Z"/><path class="cls-4" d="M903.15,1292.24s3.9,57.89,96.67,41.93l49-130.39Z"/><path class="cls-2" d="M925.34,1303.76a24.62,24.62,0,0,0,2.74-9.45,22.6,22.6,0,0,0,.07-2.46c0-.55-.13-2.16-.1-1.78v0l0-.11c0-.09,0-.08,0-.06l0,0a.38.38,0,0,1,0,.1c0,.13,0,.37,0,.59a14.22,14.22,0,0,0,.2,1.58,19.91,19.91,0,0,0,.94,3.47,23,23,0,0,0,3.6,6.59,27.06,27.06,0,0,0,6,5.71,43.09,43.09,0,0,0,8.64,4.58,78,78,0,0,0,23,4.59,160.58,160.58,0,0,0,26.42-.77l-13.86,11.46,56.66-127.53,14.48,12-74.39,39.12q-37.75,19.89-76.49,40.83Zm-44,3.29,21.79-14.81c22.82-15.51,45.83-31.41,69.23-47.63s47.16-32.73,71.32-49.34l23.17-15.93-8.69,27.94-41.43,133.26-2.79,9-11.07,2.48a199.43,199.43,0,0,1-32.43,4.74,119.74,119.74,0,0,1-35.49-3,88.53,88.53,0,0,1-18.54-7,73.65,73.65,0,0,1-17.28-12.32A71,71,0,0,1,885.8,1317,68.35,68.35,0,0,1,881.36,1307.05Z"/><line class="cls-3" x1="742.77" y1="959.94" x2="710.84" y2="821.85"/><polygon class="cls-2" points="728.16 963.32 710.84 821.85 757.38 956.56 728.16 963.32"/><line class="cls-3" x1="837.09" y1="955.76" x2="887.86" y2="821.85"/><polygon class="cls-2" points="823.06 950.45 887.86 821.85 851.11 961.08 823.06 950.45"/><line class="cls-3" x1="937.46" y1="1012.15" x2="1041.95" y2="932.86"/><polygon class="cls-2" points="928.39 1000.2 1041.95 932.86 946.52 1024.1 928.39 1000.2"/><line class="cls-3" x1="742.77" y1="821.85" x2="854.03" y2="821.85"/><path class="cls-2" d="M742.77,820.35c2.32-.6,4.64-1.11,7-1.68l7-1.52c4.63-1,9.27-1.9,13.91-2.8l6.95-1.28,7-1.19,7-1.06,6.95-1c2.32-.31,4.63-.76,7-1.28s4.64-1.1,7-1.57a38.13,38.13,0,0,1,7-.78,35.45,35.45,0,0,1,7,.63A59.23,59.23,0,0,1,847.07,815a43.83,43.83,0,0,1,7,5.35v3a43.92,43.92,0,0,1-7,5.36,59.79,59.79,0,0,1-7,3.75,60.66,60.66,0,0,1-13.91,4.39,34.71,34.71,0,0,1-7,.64,37.29,37.29,0,0,1-7-.79c-2.32-.46-4.64-1.05-7-1.57s-4.63-1-7-1.28l-6.95-1-7-1.06-7-1.19-6.95-1.29c-4.64-.89-9.28-1.78-13.91-2.8l-7-1.52c-2.31-.56-4.63-1.07-7-1.68Z"/><line class="cls-3" x1="916.03" y1="847.04" x2="1006.03" y2="917.04"/><path class="cls-2" d="M917,845.85c2.25,1,4.43,2,6.65,3l6.56,3.18c4.37,2.12,8.67,4.33,13,6.54l6.41,3.36,6.36,3.43,6.28,3.55,6.22,3.61c2.06,1.2,4.21,2.31,6.41,3.36s4.42,2,6.58,3.14a39.06,39.06,0,0,1,6.11,3.75,36.57,36.57,0,0,1,5.24,4.88,64.22,64.22,0,0,1,8.55,12.21,63.24,63.24,0,0,1,3.32,7.34,45.2,45.2,0,0,1,2.34,8.6l-1.84,2.37a45.24,45.24,0,0,1-8.92-.14,62.31,62.31,0,0,1-7.93-1.42,63.36,63.36,0,0,1-13.94-5.28,37.67,37.67,0,0,1-6-3.87,40.41,40.41,0,0,1-5.14-5c-1.59-1.82-3.11-3.74-4.66-5.61s-3.16-3.68-4.84-5.39l-5-5.14-5-5.21-4.89-5.31-4.84-5.39c-3.2-3.62-6.4-7.25-9.53-11l-4.69-5.58c-1.53-1.9-3.09-3.76-4.59-5.7Z"/><line class="cls-3" x1="682.03" y1="835.04" x2="574.03" y2="932.86"/><path class="cls-2" d="M683,836.15c-1.84,2.49-3.75,4.9-5.62,7.36l-5.73,7.24c-3.82,4.83-7.72,9.57-11.62,14.3l-5.89,7.07-5.95,7-6,6.89-6.1,6.84q-3,3.4-5.89,7.06c-1.9,2.42-3.75,4.89-5.69,7.28a64.82,64.82,0,0,1-6.23,6.69,59.81,59.81,0,0,1-7.17,5.65,99.55,99.55,0,0,1-16.45,9,92.08,92.08,0,0,1-9.27,3.33A59.16,59.16,0,0,1,575,934l-2-2.23a59.2,59.2,0,0,1,3.15-10.08,90.18,90.18,0,0,1,4.24-8.9A98.29,98.29,0,0,1,591,897.29a60.62,60.62,0,0,1,6.32-6.59,64.83,64.83,0,0,1,7.28-5.53c2.56-1.69,5.2-3.29,7.8-4.95s5.15-3.36,7.61-5.16l7.4-5.4,7.46-5.33,7.55-5.23,7.61-5.16c5.1-3.42,10.2-6.83,15.38-10.16l7.77-5c2.63-1.63,5.22-3.29,7.88-4.87Z"/><path class="cls-2" d="M854.78,990.34c-4.19,3.2-8.29,6.65-12.2,10.21s-7.73,7.22-11.37,11a193.84,193.84,0,0,0-19.88,24,152.25,152.25,0,0,0-8.16,12.94,131.33,131.33,0,0,0-6.66,13.46,112.83,112.83,0,0,0-5,13.84,93.86,93.86,0,0,0-3,14.08,78.34,78.34,0,0,0,1.6,27.9c1,4.52,2.06,9,3.33,13.44s2.44,9,3.91,13.51l.5,1.72.57,1.71,1.12,3.45,1.23,3.45c.4,1.16.81,2.32,1.26,3.47s.88,2.33,1.3,3.5l1.37,3.52c.91,2.36,1.89,4.71,2.87,7.1s2,4.76,3,7.22c.47,1.25,1.06,2.42,1.56,3.65l1.55,3.72c1,2.48,2.14,5,3.14,7.57s2.14,5.13,3.06,7.89l-2.21,2c-2.62-1.25-5.13-2.65-7.6-4.12s-4.78-3.13-7.1-4.81-4.53-3.48-6.68-5.37c-1.08-.94-2.12-1.91-3.18-2.89l-1.58-1.46c-.52-.51-1-1-1.51-1.54a110.48,110.48,0,0,1-20.42-28.43,84.31,84.31,0,0,1-9-35c-.12-3.06,0-6.13.07-9.18l.34-4.57c.12-1.52.36-3,.52-4.54a148.94,148.94,0,0,1,3.47-17.73,121,121,0,0,1,13.76-32.34,146.31,146.31,0,0,1,9.82-14.1A165.63,165.63,0,0,1,799.81,1026a192.83,192.83,0,0,1,25.27-21.57,178.54,178.54,0,0,1,28.2-16.71Z"/></g><g id="dragonArm1-1"><path class="cls-1" d="M238.63,773s-481.93,318.5,76.73,580c0,0,462.12-164.28,110.39-580"/><path class="cls-2" d="M240,775.12c-6.47,4.68-12.85,9.7-19.11,14.77s-12.42,10.29-18.47,15.62-12,10.74-17.84,16.3c-3,2.75-5.8,5.59-8.69,8.39s-5.71,5.67-8.5,8.56c-22.47,23-43.19,47.65-60.71,74.23a368.25,368.25,0,0,0-23.63,41.18,273.87,273.87,0,0,0-17,43.73,214.88,214.88,0,0,0-8.15,45.47,185.73,185.73,0,0,0,16,88.82,236.15,236.15,0,0,0,22.78,39.6c2.27,3.09,4.51,6.2,6.8,9.28l7.31,8.94,1.83,2.24c.62.73,1.29,1.43,1.93,2.16l3.9,4.29c2.6,2.85,5.12,5.78,7.93,8.47l8.22,8.23c2.8,2.69,5.73,5.26,8.59,7.9l4.3,3.94c1.42,1.33,3,2.53,4.45,3.8l9,7.53c1.47,1.28,3,2.46,4.6,3.66l4.65,3.59,4.65,3.59c1.56,1.18,3.07,2.42,4.69,3.53l9.61,6.84,4.8,3.41c1.59,1.15,3.28,2.19,4.91,3.28l9.87,6.5c1.65,1.07,3.27,2.2,4.95,3.22l5.06,3.1c6.75,4.1,13.39,8.35,20.34,12.17a935.83,935.83,0,0,0,85,43l-15.55-.75,2.17-.87,2.41-1c1.62-.69,3.24-1.4,4.88-2.12,3.26-1.46,6.53-3,9.78-4.52,6.52-3.11,13-6.44,19.34-9.88,12.75-6.91,25.2-14.38,37.24-22.39s23.63-16.57,34.76-25.58a399.45,399.45,0,0,0,31.66-28.59c19.91-20,37.36-42,51-65.7a241.3,241.3,0,0,0,28.53-76l.88-5c.3-1.68.62-3.36.8-5.06.41-3.38.89-6.77,1.26-10.17s.5-6.84.79-10.27.22-6.88.34-10.33a299.52,299.52,0,0,0-2.62-41.71c-1.18-7-2.14-14-3.76-20.89-1.27-7-3.19-13.89-4.91-20.85-.94-3.46-2-6.89-3.05-10.35l-1.53-5.19c-.52-1.73-1.14-3.43-1.71-5.15l-3.49-10.3c-1.22-3.42-2.59-6.8-3.88-10.21-2.47-6.87-5.45-13.56-8.28-20.33-1.37-3.41-3-6.71-4.54-10.06L492,891.08c-1.62-3.32-3.31-6.61-5-9.93s-3.25-6.66-5-9.94l-5.29-9.82-2.65-4.93c-.85-1.66-1.78-3.28-2.71-4.89l-5.57-9.73c-1.87-3.24-3.67-6.54-5.65-9.72l-5.83-9.64c-2-3.2-3.82-6.49-5.89-9.63-4.08-6.32-8-12.78-12.14-19.13s-8.33-12.64-12.42-19.07l3.82-3.23c5.54,5.26,11,10.61,16.45,16,1.38,1.32,2.69,2.72,4,4.1l3.95,4.17L460,804c2.65,2.77,5.16,5.68,7.69,8.56l7.58,8.68c2.58,2.87,5,5.88,7.39,8.87l7.28,9c2.48,3,4.72,6.11,7.05,9.19l6.94,9.3c1.18,1.54,2.25,3.15,3.37,4.74l3.31,4.79c2.18,3.2,4.41,6.39,6.57,9.62l6.26,9.87c2.08,3.3,4.2,6.58,6.1,10,3.87,6.8,7.92,13.52,11.44,20.56,1.79,3.51,3.64,7,5.37,10.53l5,10.75c.82,1.8,1.7,3.58,2.47,5.41l2.28,5.5c1.47,3.69,3,7.35,4.44,11.09,2.66,7.53,5.5,15,7.71,22.75,2.46,7.66,4.23,15.55,6.2,23.4a305,305,0,0,1,6.63,48.54,254.8,254.8,0,0,1-2,49.63,258.93,258.93,0,0,1-11.52,48.66l-2,5.92-2.3,5.82-2.31,5.81c-.82,1.92-1.69,3.81-2.56,5.7l-2.6,5.68c-.9,1.87-1.88,3.7-2.82,5.56l-2.84,5.55c-1,1.83-2,3.61-3,5.42-16.38,28.88-37.66,54.3-61.37,76.18l-2.22,2.07-2.27,2-4.53,4c-3,2.65-6.14,5.19-9.22,7.76s-6.29,5-9.44,7.45-6.37,4.84-9.62,7.16c-12.91,9.38-26.26,18-39.91,26.06s-27.61,15.4-41.86,22.17c-7.13,3.4-14.34,6.61-21.63,9.71q-5.46,2.33-11,4.51-2.79,1.1-5.63,2.16l-2.89,1.06-3.15,1.12-8.17,2.89-7.37-3.64c-29.6-14.63-58.76-30.36-87-47.94-7.12-4.25-14-9-20.95-13.53l-5.2-3.45c-1.73-1.15-3.41-2.4-5.12-3.6l-10.18-7.27c-1.69-1.23-3.41-2.39-5.07-3.67l-5-3.83-9.93-7.65c-1.68-1.25-3.26-2.64-4.88-4l-4.83-4-4.83-4c-1.61-1.34-3.23-2.66-4.77-4.1l-9.35-8.47c-1.55-1.43-3.15-2.78-4.64-4.28l-4.5-4.46c-3-3-6-5.9-8.94-9L103,1229c-2.92-3-5.57-6.39-8.3-9.64l-4.07-4.9c-.67-.82-1.37-1.62-2-2.46l-1.92-2.56L79,1199.21c-2.42-3.52-4.77-7.1-7.14-10.64a261.32,261.32,0,0,1-23.62-45.73,213.46,213.46,0,0,1-13.07-50,207.19,207.19,0,0,1-.41-51.53,237.15,237.15,0,0,1,11.4-49.65,294,294,0,0,1,20.48-45.94,364.32,364.32,0,0,1,26.93-41.86c19.67-26.61,42.24-50.66,66.33-72.8,3-2.77,6.09-5.47,9.14-8.19s6.16-5.38,9.3-8c6.23-5.28,12.6-10.4,19-15.44,12.89-10,26-19.62,39.89-28.44Z"/></g><g id="dragonHand"><path class="cls-1" d="M812.48,1614V1331.9l-115-128.12-120,89.36-84-89.36-80,89.36-108-89.36-82,115.72-114.75-45.94S-23.93,1459,76.77,1614Z"/><path class="cls-2" d="M810.71,1612.27q-1.35-71.25-3-141.28c-1-46.69-2-93-2.84-139.09l1.95,5.1L689.73,1210.73l14,1.4-118.61,91.22-8.86,6.82-8-8.31-85.3-88.14,21.41-.26-78.78,90.45-10.08,11.57-12.26-9.89-109.11-88,26-3.45-80.7,116.65-8.62,12.45-14.53-5.63-57.63-22.32-57.67-22.22,24.88-7.27-1.26,1.9-1.4,2.16c-.92,1.47-1.85,3-2.77,4.48-1.84,3-3.64,6.1-5.41,9.21-3.53,6.22-6.91,12.57-10.14,19-6.44,12.86-12.3,26-17.4,39.39a386.53,386.53,0,0,0-13.11,40.68q-2.68,10.29-4.75,20.65c-1.37,6.9-2.48,13.82-3.38,20.75-3.56,27.68-3.13,55.42,2.17,81.85a211.92,211.92,0,0,0,30.26,74L76.77,1588c59.78-.08,119.43.72,179.35,2,30,.66,60,1.53,90.1,2.38l45.27,1.46,22.69.75,22.76.84c60.72,2.22,122,4.82,184.19,7.65l94,4.39C746.66,1609,778.43,1610.54,810.71,1612.27Zm3.53,3.54c-29,1.73-58.57,3.23-88.29,4.76s-59.77,3-90,4.39q-90.66,4.24-183.65,7.64l-23.23.85-23.29.75-46.7,1.46c-31.2.85-62.47,1.71-93.82,2.37-62.7,1.34-125.66,2.14-188.51,2.06l-14.44,0-7.4-11.84-3.32-5.32L50,1620.25l-1.57-2.73-3.11-5.46-2.93-5.57-1.45-2.79-1.36-2.83c-.9-1.9-1.83-3.78-2.71-5.69-1.66-3.85-3.42-7.67-4.9-11.6a244.94,244.94,0,0,1-8-23.86,242.38,242.38,0,0,1-5.6-24.46,270.35,270.35,0,0,1-4.11-49.53c0-8.24.46-16.44,1.19-24.57s1.73-16.23,3.07-24.22,2.89-15.94,4.72-23.78,3.94-15.59,6.24-23.25A436.16,436.16,0,0,1,45.69,1345q9.31-21.88,20.64-42.7c3.79-6.94,7.73-13.79,11.88-20.55,2.08-3.38,4.2-6.74,6.39-10.09q1.65-2.52,3.36-5l1.75-2.54,2-2.76,9.63-13.61,15.25,6.34,57.07,23.72,57.11,23.61-23.15,6.82,83.3-114.8,11.46-15.79L316.89,1190l106.89,90.7-22.34,1.67,81.22-88.27,10.86-11.81,10.54,11.55,82.7,90.58-16.89-1.49,121.39-87.5,7.84-5.65,6.13,7,112.93,130,2,2.31,0,2.79c-.81,47.93-1.78,95.7-2.84,143.06S815.14,1569.26,814.24,1615.81Z"/><path class="cls-4" d="M779.74,1522s-26.7-57.74-105.87-4.71l6.83,153Z"/><path class="cls-2" d="M754.81,1520a24.48,24.48,0,0,0,.8,8.53,23.84,23.84,0,0,0,1.48,4c.29.6.08.17.15.3h0l0,0,0,0v0a.89.89,0,0,0-.07-.23,7.32,7.32,0,0,0-.31-.7c-.24-.53-.56-1.1-.89-1.68a30.38,30.38,0,0,0-2.37-3.35,26.81,26.81,0,0,0-5.95-5.48c-4.41-3-9.92-4.71-16.8-4.81-.85,0-1.75.06-2.62.07l-1.33,0-1.37.16c-.92.11-1.84.17-2.77.31l-2.85.51c-.48.1-1,.15-1.44.27l-1.46.37-2.93.72-3,.93c-1,.33-2,.56-3,1a146.69,146.69,0,0,0-24.12,11.49l8.11-16-1.63,153.32-18-5,53-70.25q26.88-35.64,54.18-72.51Zm38.81-21.24L779.74,1522q-22.31,37.24-44.87,75.73l-46,78-15,25.41-3-30.44-15.28-152.57-.94-9.34,9-6.69a185.9,185.9,0,0,1,28.73-17.79c1.27-.68,2.68-1.23,4-1.85l4.08-1.8,4.27-1.6,2.14-.79c.72-.27,1.48-.47,2.22-.71l4.48-1.34c1.52-.42,3.1-.75,4.65-1.12l2.35-.53,2.43-.39c1.63-.24,3.22-.56,4.9-.71a79.38,79.38,0,0,1,20.78.37,73.45,73.45,0,0,1,21,6.49,74.5,74.5,0,0,1,18.21,12.53A80.87,80.87,0,0,1,793.62,1498.79Z"/><path class="cls-4" d="M604.08,1551.51s-37.16-106.42-110.39-25.76L526,1797.09Z"/><path class="cls-2" d="M579.09,1551.85a24.55,24.55,0,0,0,1.13,7.1l.29.87h0v0l0-.14-.11-.34-.26-.78-.59-1.68c-.42-1.15-.88-2.32-1.35-3.49-1-2.34-2-4.66-3.11-6.93a96.33,96.33,0,0,0-7.38-12.67,57.54,57.54,0,0,0-8.41-9.75,27.87,27.87,0,0,0-8.27-5.38,18.19,18.19,0,0,0-8.31-1.2,32.12,32.12,0,0,0-10.68,3.23,68.73,68.73,0,0,0-12,7.62,124.41,124.41,0,0,0-11.83,10.64l4.94-15.46L535.38,1796l-18.47-1.76q43.13-119.91,87.17-242.7Zm34.64-35-9.65,34.7L535,1800l-11.65,41.89-6.82-43.65-42.26-270.15L473,1519.9l6.22-7.3a167.43,167.43,0,0,1,14.53-15.15,110.59,110.59,0,0,1,18.17-13.52,75.45,75.45,0,0,1,23.88-9.17,63.38,63.38,0,0,1,14.05-1A61.79,61.79,0,0,1,564,1476a71.92,71.92,0,0,1,23.94,12.12,102.19,102.19,0,0,1,17.16,16.72A137,137,0,0,1,613.73,1516.81Z"/><path class="cls-4" d="M425.75,1551.51s-37.16-106.42-110.39-25.76l32.26,271.34Z"/><path class="cls-2" d="M400.75,1551.85a24.91,24.91,0,0,0,1.14,7.1l.29.87h0v0l0-.14-.11-.34-.26-.78-.59-1.68c-.42-1.15-.88-2.32-1.36-3.49-.95-2.34-2-4.66-3.1-6.93a96.33,96.33,0,0,0-7.38-12.67,57.54,57.54,0,0,0-8.41-9.75,27.87,27.87,0,0,0-8.27-5.38,18.19,18.19,0,0,0-8.31-1.2,32.12,32.12,0,0,0-10.68,3.23,68.73,68.73,0,0,0-12,7.62,124.41,124.41,0,0,0-11.83,10.64l4.94-15.46L357.05,1796l-18.47-1.76q43.13-119.91,87.17-242.7Zm34.65-35-9.65,34.7L356.67,1800,345,1841.86l-6.82-43.65-42.26-270.15-1.28-8.16,6.22-7.3a167.43,167.43,0,0,1,14.53-15.15,110.59,110.59,0,0,1,18.17-13.52,75.45,75.45,0,0,1,23.88-9.17,63.38,63.38,0,0,1,14.05-1,61.79,61.79,0,0,1,14.14,2.24,71.92,71.92,0,0,1,23.94,12.12,102.57,102.57,0,0,1,17.16,16.72A137,137,0,0,1,435.4,1516.81Z"/><path class="cls-4" d="M128.12,1539.85s42.72-80.56,110.51-25.22l-47.18,201.88Z"/><path class="cls-2" d="M119,1510.43a129.8,129.8,0,0,1,13.86-13.78,107.6,107.6,0,0,1,17.46-12.16,84,84,0,0,1,20.93-8.23,76.85,76.85,0,0,1,23-2q2.86.26,5.72.57c1.86.31,3.71.69,5.56,1a50.09,50.09,0,0,1,5.39,1.4,52.19,52.19,0,0,1,5.22,1.7c13.58,5.08,24.78,12.79,34.27,21.19l9.36,8.29-3,10.46L200.1,1718.53l-8.33,29.3-8.69-28.32c-18.73-61-36.81-121-55-179.66Zm9.1,29.42c24.07,59.12,48.21,116.92,71.69,173.66l-17,1,37.63-204.11,6.38,18.74c-7.66-5.6-15.67-9.66-23.15-11.61a22.07,22.07,0,0,0-2.77-.58,18.85,18.85,0,0,0-2.72-.41l-2.65-.23c-.87,0-1.73,0-2.58,0a34.52,34.52,0,0,0-9.85,2c-6.38,2.26-12.72,6.81-18.51,12.84a82,82,0,0,0-8.16,10c-1.26,1.8-2.44,3.65-3.57,5.5-.54.94-1.08,1.86-1.57,2.77l-.69,1.32-.29.6-.1.22s-.05.12,0,.07a24,24,0,0,0,2.89-10Z"/></g></g></svg>