<svg xmlns="http://www.w3.org/2000/svg" viewBox="0 0 1550.97 1592.92"><defs><style>.cls-1,.cls-5{fill:#231f20;}.cls-2{fill:#009444;}.cls-3{fill:#f9ed32;}.cls-4{fill:#754c29;}.cls-5{stroke:#231f20;stroke-miterlimit:10;stroke-width:50px;}.cls-6{fill:#e0d7ca;}</style></defs><title>greenKnightAsset 18</title><g id="Layer_2" data-name="Layer 2"><g id="knightTwo"><g id="lines"><path class="cls-1" d="M575.87,1438.1s202.46-80,407.31,0L1250.53,1141H340Z"/><path class="cls-1" d="M761,1195.51s116.59-13.73,241.26,38.45l333.66-271.88,1.13-571.2H184.94l1.13,571.2L519.73,1234C644.4,1181.78,761,1195.51,761,1195.51Z"/><path class="cls-2" d="M761,1195.51c5.1-.55,10.23-.9,15.36-1.16s10.26-.47,15.4-.6q15.4-.36,30.84,0,30.85.75,61.7,4.16t61.48,9.68a574.63,574.63,0,0,1,60.75,16.13l-11.26,1.63c26-24.85,51.93-49.83,78.16-74.42q19.66-18.45,39.53-36.65l19.94-18.12c6.68-6,13.31-12.06,20.11-17.91s13.71-11.56,20.75-17.12l21.15-16.63c7.06-5.53,14-11.2,20.95-16.87l20.85-17,83.42-68L1310.92,962l1.13-571.2,25,25.05H184.94l25-25.05L211.07,962l-9.21-19.34,83.42,68,20.85,17c7,5.65,13.87,11.36,20.91,16.92l21.15,16.63q10.53,8.37,20.65,17.24,40.19,35.85,79.44,72.86c26.21,24.61,52.16,49.55,78.22,74.35l-10.9-1.58c10-3.22,20.07-6.31,30.2-9s20.3-5,30.48-7.26q30.6-6.35,61.43-9.79t61.68-4.25q15.42-.39,30.84,0,7.71.18,15.4.59C750.76,1194.61,755.89,1195,761,1195.51Zm0,0c-10.23-1-20.51-1.36-30.77-1.42s-20.54.34-30.78,1.05a455.19,455.19,0,0,0-119.85,24.64c-9.57,3.44-19.06,7.06-28.33,11.14-4.67,2-9.26,4.09-13.83,6.23-2.3,1-4.55,2.19-6.81,3.32l-6.76,3.37-5,2.5-5.88-4.08c-29.56-20.51-59.22-40.88-88.62-61.59S365.78,1139,337,1117.59q-10.75-8.11-21.06-16.75l-20.56-17.35c-6.86-5.78-13.85-11.4-20.79-17.07l-20.86-17-83.41-68L161.09,974l0-11.85-1.13-571.19-.05-25.05H1362.1l0,25.05-1.13,571.19,0,11.85-9.19,7.49-83.41,68-20.85,17c-7,5.66-13.92,11.32-20.76,17.11l-20.56,17.36q-10.31,8.65-21,16.87c-7.1,5.47-14.37,10.74-21.59,16.08l-21.78,15.86q-21.83,15.79-43.88,31.32c-29.38,20.72-59.08,41.06-88.67,61.52l-6.11,4.23-5.16-2.59c-9-4.53-18-9-27.35-13-9.27-4.1-18.74-7.74-28.31-11.2a453.89,453.89,0,0,0-119.78-24.85q-15.36-1.07-30.78-1.06C781.5,1194.15,771.22,1194.48,761,1195.51Z"/><path class="cls-2" d="M920.31,894.91,1525,469V43.1H775s340,103,545,103V310L956.79,378Z"/><path class="cls-1" d="M920.31,894.91q78.83-59,154.16-117.85c25.1-19.58,49.92-39.26,74.42-58.7s48.72-39,72.69-58.18l35.79-28.75,17.78-14.27q8.88-7,17.84-13.59c12-8.72,24.06-16.88,36.08-25.5l36.06-26q72.22-52,145.5-103.48L1500,469V43.1l25,25H775l7.24-48.93c5.32,1.6,10.9,3.23,16.38,4.82l16.56,4.74q16.6,4.69,33.25,9.22,33.31,9.06,66.8,17.49c44.64,11.21,89.45,21.67,134.43,30.94,11.24,2.35,22.5,4.54,33.76,6.76s22.53,4.3,33.81,6.24,22.56,3.87,33.85,5.74c11.29,1.72,22.58,3.54,33.88,5s22.59,3,33.89,4.36l16.93,1.81,4.24.45,4.23.37,8.45.74c22.54,1.91,45,3.16,67.3,3.21l25,.05V330.7l-20.4,3.82-363.24,68,20.34-22.82-1.06,15.44-.86,15.42c-.52,10.26-1.08,20.48-2.14,30.72-.51,5.11-1.14,10.24-1.83,15.37l-2,15.42L969.67,503c-2.81,20.69-5.6,41.48-8.55,62.49L952.31,629c-5.93,42.75-11.73,86.34-17.14,130.74S924.82,849.24,920.31,894.91Zm0,0q2.37-60.72,3.39-123.34c.67-41.76.94-84.34,1.09-127.74l.31-65.72c.09-22.07.34-44.37.57-66.75l.42-33.67.24-16.89c.08-5.64.21-11.28.46-16.94.45-11.3,1.42-22.62,2.41-33.9l1.43-16.89,1.22-16.87,1.39-19.27,19-3.55,363.23-68L1295,310V146.1l25,25c-24.11-.06-47.92-1.39-71.55-3.39l-8.86-.78-4.42-.39-4.41-.47-17.63-1.88c-11.7-1.45-23.42-2.82-35.06-4.51s-23.26-3.42-34.88-5.19-23.16-3.79-34.69-5.88-23-4.22-34.55-6.37-23-4.5-34.4-6.9c-45.81-9.44-91.28-20-136.53-31.41q-33.94-8.55-67.71-17.73-16.89-4.59-33.74-9.36L784.74,72c-5.65-1.64-11.18-3.26-17-5L605.22,18.1H1550V482l-10.61,7.47q-77.89,54.85-156.86,109.47L1343,626.13c-13.17,9.13-26.25,18.72-39.5,27.74q-9.93,6.76-20,13l-20,12.35-39.8,24.49L1145.27,752c-25.89,16.05-51.46,31.86-76.76,47.78Q992.67,847.37,920.31,894.91Z"/><path class="cls-2" d="M629.74,894.91,25,469V43.1H775s-340,103-545,103V310l363.23,68Z"/><path class="cls-1" d="M629.74,894.91q-72.36-47.49-148.2-95.09c-25.29-15.92-50.87-31.73-76.76-47.78l-78.49-48.3-39.8-24.49-20-12.35q-10-6.27-20-13c-13.25-9-26.33-18.61-39.5-27.74l-39.53-27.21q-79-54.49-156.86-109.47L0,482V18.1h944.8L782.27,67c-5.78,1.74-11.31,3.36-17,5l-16.86,4.82q-16.86,4.77-33.74,9.36-33.76,9.18-67.7,17.73c-45.26,11.36-90.73,22-136.54,31.41-11.44,2.4-22.92,4.64-34.4,6.9s-23,4.38-34.55,6.37-23.12,4-34.69,5.88-23.21,3.64-34.88,5.19-23.36,3.06-35.06,4.51l-17.63,1.88-4.41.47-4.42.39-8.86.78c-23.63,2-47.44,3.33-71.54,3.39l25-25V310l-20.4-24.58,363.23,68,18.95,3.55,1.39,19.27,1.22,16.87L620.85,410c1,11.28,2,22.6,2.41,33.9.25,5.66.38,11.3.46,16.94l.24,16.89.42,33.67c.23,22.38.49,44.68.57,66.75l.31,65.72c.15,43.4.42,86,1.09,127.74S628.16,854.43,629.74,894.91Zm0,0q-6.76-68.5-14.86-135.13c-5.4-44.4-11.21-88-17.14-130.74l-8.8-63.52c-3-21-5.75-41.8-8.56-62.49l-4.14-30.95-2-15.42c-.68-5.13-1.31-10.26-1.83-15.37-1.06-10.24-1.62-20.46-2.14-30.72l-.86-15.42-1-15.44,20.33,22.82-363.24-68L205,330.7V121.15l25-.05c22.24,0,44.75-1.3,67.29-3.21l8.45-.74,4.23-.37,4.24-.45,16.93-1.81c11.3-1.4,22.59-2.72,33.89-4.36s22.59-3.32,33.88-5c11.29-1.87,22.58-3.69,33.85-5.74s22.54-4.13,33.81-6.24,22.52-4.41,33.76-6.76c45-9.27,89.79-19.73,134.43-30.94Q668.27,47,701.59,38q16.65-4.53,33.25-9.22L751.4,24c5.48-1.59,11.06-3.22,16.38-4.82L775,68.1H25l25-25V469L39.42,448.57q73.29,51.62,145.5,103.48l36.06,26c12,8.62,24.14,16.78,36.08,25.5q9,6.55,17.84,13.59l17.78,14.27,35.79,28.75c24,19.23,48.19,38.7,72.69,58.18s49.32,39.12,74.42,58.7Q550.91,836,629.74,894.91Z"/><path class="cls-2" d="M1226.94,1179.1s-251.69,6.15-251.84,234.15c0,0,13.84,198,550.84,105C1525.94,1518.25,1534.94,1240.94,1226.94,1179.1Z"/><path class="cls-1" d="M1226.94,1179.1a169.83,169.83,0,0,0-23.79,2.79,193.61,193.61,0,0,0-23.24,5.84,212.81,212.81,0,0,0-43.44,19.62,316.19,316.19,0,0,0-38.09,26.49q-8.79,7.11-16.89,14.51l-2,1.83-2,1.88c-1.3,1.27-2.66,2.45-3.91,3.75s-2.57,2.5-3.85,3.74-2.59,2.42-3.94,3.56-2.66,2.31-4,3.42-2.71,2.24-4.08,3.35-2.68,2.28-4,3.47-2.58,2.38-3.77,3.66-2.45,2.52-3.59,3.84l-3.46,3.94c-2.21,2.71-4.45,5.38-6.5,8.2a169.52,169.52,0,0,0-20.7,36.25,178.42,178.42,0,0,0-7,19.91c-1,3.37-1.83,6.84-2.71,10.29-.43,1.72-.74,3.49-1.12,5.23s-.77,3.48-1,5.26a254.71,254.71,0,0,0-3.71,43.34l-.06-1.77,0-.53v.1l.07.43.1.56.13.65c.21.9.43,1.87.73,2.88a62.05,62.05,0,0,0,2.2,6.27,79.32,79.32,0,0,0,6.67,12.65,109.47,109.47,0,0,0,20.17,23c2,1.77,4.07,3.42,6.14,5.11s4.28,3.27,6.54,4.8,4.54,3,6.82,4.55c1.17.73,2.37,1.43,3.55,2.15s2.36,1.44,3.59,2.1a235,235,0,0,0,30.73,14.44c21.48,8.33,44.51,14.08,68,18.27a607.21,607.21,0,0,0,71.89,8c24.27,1.34,48.76,1.44,73.3.78s49.13-2.22,73.73-4.39,49.19-5,73.74-8.29,49.09-7.18,73.58-11.37L1501,1517.44v-2.82c0-1.09,0-2.22-.06-3.36-.06-2.27-.17-4.6-.3-6.92-.28-4.67-.68-9.39-1.19-14.11-1-9.44-2.47-18.9-4.29-28.29s-4-18.71-6.63-27.91-5.58-18.29-8.94-27.22a321.5,321.5,0,0,0-24.61-51.37,301.82,301.82,0,0,0-33.51-45.69q-9.47-10.55-19.85-20.22c-1.76-1.58-3.55-3.13-5.38-4.63l-1.37-1.12-1.41-1.08-2.83-2.14c-.94-.72-1.86-1.46-2.78-2.21s-1.85-1.47-2.74-2.24c-1.81-1.53-3.51-3.18-5.21-4.86q-10.24-10-21.13-19.87c-7.34-6.44-14.77-13.06-22.68-19.21-3.87-3.22-8-6.14-12-9.22-2-1.51-4.12-2.92-6.2-4.4s-4.14-3-6.29-4.34c-4.29-2.71-8.56-5.59-13-8.08-2.22-1.26-4.44-2.55-6.69-3.79s-4.55-2.34-6.84-3.5A232.43,232.43,0,0,0,1226.94,1179.1Zm0,0c20.11,4.05,40.22,7.94,60.74,11.84l7.72,1.44c2.56.55,5.15,1,7.73,1.57,5.2,1,10.36,2.12,15.58,3.23,2.63.5,5.2,1.18,7.81,1.78s5.24,1.2,7.83,1.89c5.17,1.42,10.44,2.71,15.6,4.36,2.59.8,5.19,1.59,7.78,2.44s5.15,1.77,7.72,2.7,5.12,1.9,7.67,2.91,5.1,2,7.61,3.14a262.9,262.9,0,0,1,29.41,15.16,82,82,0,0,1,13.24,10c4.12,3.69,8,7.64,12.13,11.31q12.13,11.29,23.23,23.65a350.78,350.78,0,0,1,39.14,53.36,371.67,371.67,0,0,1,28.49,59.42q5.78,15.4,10.24,31.21t7.59,31.92q3.12,16.11,4.93,32.5c.58,5.48,1,11,1.38,16.54.16,2.79.29,5.59.37,8.44,0,1.42.07,2.85.08,4.33v2.24l0,2.63-.3,20.33-20.42,3.49q-37.56,6.43-75.41,11.66t-76,8.55c-25.46,2.24-51,3.84-76.74,4.56s-51.5.59-77.4-.83a659.73,659.73,0,0,1-77.87-8.65c-26-4.64-51.92-11-77.34-20.88a284.15,284.15,0,0,1-37.41-17.61c-1.54-.83-3-1.75-4.55-2.66s-3-1.8-4.51-2.74c-3-1.93-5.95-3.81-8.85-5.9s-5.78-4.2-8.65-6.36-5.63-4.5-8.34-6.93a159,159,0,0,1-29.27-33.58A128.38,128.38,0,0,1,957,1440.86a111.5,111.5,0,0,1-4-11.52c-.58-2-1.1-4.09-1.57-6.25l-.33-1.67-.32-1.75-.28-1.9-.14-1.07-.07-.67-.09-1-.06-.72v-1a303.73,303.73,0,0,1,4.5-52.13c.33-2.17.84-4.34,1.27-6.5s.86-4.34,1.39-6.5c1.08-4.31,2.08-8.63,3.4-12.9a225.71,225.71,0,0,1,8.92-25.31,219.35,219.35,0,0,1,26.76-46.84c2.67-3.65,5.54-7.11,8.4-10.59l4.45-5.08c1.48-1.69,3.07-3.28,4.6-4.93l2.3-2.45c.79-.8,1.56-1.61,2.33-2.42,1.56-1.62,3.08-3.27,4.68-4.84s3.14-3.21,4.8-4.71,3.33-3,5.07-4.4,3.56-2.69,5.4-4,3.78-2.38,5.68-3.53,3.85-2.23,5.81-3.29l2.92-1.58,3-1.49a202.12,202.12,0,0,1,24.21-10.2,274.07,274.07,0,0,1,49.81-11.7c16.62-2.42,33-3.86,49.13-5.29q12.1-1,24.09-2C1211,1180,1219,1179.4,1226.94,1179.1Z"/><path class="cls-2" d="M324,1204s251.69,6.15,251.84,234.15c0,0-13.84,198-550.84,105C25,1543.1,16,1265.79,324,1204Z"/><path class="cls-1" d="M324,1204c8,.3,16,.93,24,1.52s16,1.28,24.09,2c16.13,1.42,32.51,2.87,49.13,5.29a274.07,274.07,0,0,1,49.81,11.7,202.12,202.12,0,0,1,24.21,10.2l3,1.49,2.92,1.58c2,1.06,3.9,2.13,5.81,3.28s3.85,2.26,5.68,3.54,3.64,2.58,5.4,4,3.41,2.9,5.07,4.4,3.2,3.14,4.8,4.71,3.12,3.22,4.68,4.84c.77.81,1.54,1.62,2.33,2.42l2.31,2.45c1.52,1.65,3.11,3.23,4.59,4.93l4.45,5.07c2.86,3.48,5.73,7,8.4,10.6a219.1,219.1,0,0,1,26.76,46.84,225.71,225.71,0,0,1,8.92,25.31c1.32,4.27,2.32,8.59,3.4,12.9.53,2.16.92,4.33,1.39,6.49s.94,4.33,1.27,6.51a303.73,303.73,0,0,1,4.5,52.13v1l-.07.72-.09,1-.07.67-.14,1.07-.28,1.9-.32,1.75-.33,1.67c-.47,2.16-1,4.25-1.57,6.25a110.5,110.5,0,0,1-4,11.51,128.06,128.06,0,0,1-10.84,20.66,158.37,158.37,0,0,1-29.27,33.57c-2.71,2.44-5.53,4.68-8.34,6.94s-5.71,4.36-8.65,6.36-5.89,4-8.85,5.9c-1.5.94-3,1.83-4.51,2.74s-3,1.82-4.55,2.66a284.15,284.15,0,0,1-37.41,17.61c-25.41,9.84-51.39,16.24-77.34,20.88a659.73,659.73,0,0,1-77.87,8.65c-25.9,1.42-51.71,1.52-77.4.83s-51.28-2.32-76.74-4.56-50.82-5.12-76-8.55S45.8,1572,20.76,1567.73L.34,1564.24,0,1543.91l0-2.63V1539c0-1.48,0-2.91.08-4.33.08-2.86.21-5.65.37-8.44.33-5.56.8-11.06,1.38-16.54q1.79-16.41,4.93-32.5t7.59-31.92q4.47-15.8,10.24-31.21a371.26,371.26,0,0,1,28.49-59.42,351.36,351.36,0,0,1,39.14-53.37q11.07-12.35,23.23-23.65c4.13-3.66,8-7.61,12.13-11.3a80.84,80.84,0,0,1,13.24-9.95,262.9,262.9,0,0,1,29.41-15.16c2.51-1.11,5.08-2.1,7.61-3.14s5.09-2,7.67-2.91,5.15-1.82,7.72-2.7,5.19-1.64,7.78-2.44c5.16-1.65,10.43-2.94,15.6-4.37,2.6-.68,5.23-1.26,7.83-1.89s5.18-1.27,7.81-1.77c5.22-1.11,10.38-2.28,15.58-3.23,2.58-.53,5.17-1,7.73-1.57l7.72-1.44C283.81,1211.89,303.92,1208,324,1204Zm0,0A232,232,0,0,0,266,1223.69c-2.29,1.16-4.58,2.3-6.84,3.5s-4.47,2.52-6.69,3.79c-4.46,2.49-8.73,5.36-13,8.08-2.15,1.36-4.2,2.9-6.29,4.34s-4.17,2.89-6.2,4.4c-4,3.08-8.12,6-12,9.22-7.91,6.15-15.34,12.77-22.68,19.21s-14.3,13.19-21.13,19.86c-1.7,1.69-3.4,3.34-5.21,4.87-.89.77-1.83,1.49-2.74,2.24s-1.84,1.49-2.78,2.21l-2.82,2.14-1.42,1.07-1.37,1.13c-1.83,1.5-3.62,3-5.37,4.63q-10.38,9.67-19.86,20.22A301.82,301.82,0,0,0,96,1380.29a321.5,321.5,0,0,0-24.61,51.37q-5,13.39-8.94,27.22t-6.63,27.91c-1.82,9.38-3.27,18.84-4.29,28.29-.51,4.72-.91,9.44-1.19,14.11-.12,2.32-.24,4.65-.3,6.92,0,1.14-.06,2.27-.06,3.36v2.82l-20.72-23.83q36.74,6.29,73.58,11.38t73.74,8.29c24.6,2.17,49.2,3.7,73.73,4.39s49,.56,73.3-.78a607.21,607.21,0,0,0,71.89-8c23.49-4.19,46.52-9.94,68-18.27a235,235,0,0,0,30.73-14.44c1.23-.67,2.41-1.39,3.59-2.1s2.38-1.42,3.55-2.15c2.28-1.51,4.63-3,6.82-4.56s4.38-3.18,6.54-4.79,4.18-3.34,6.14-5.11a109.47,109.47,0,0,0,20.17-23,79,79,0,0,0,6.67-12.66,61.05,61.05,0,0,0,2.2-6.26c.3-1,.52-2,.73-2.88l.13-.65.1-.57.07-.42v-.1l-.05.53-.06,1.76a253.67,253.67,0,0,0-3.71-43.33c-.26-1.78-.69-3.51-1-5.26s-.69-3.51-1.12-5.23c-.88-3.45-1.66-6.92-2.71-10.3a178.26,178.26,0,0,0-7-19.9,169.52,169.52,0,0,0-20.7-36.25c-2.05-2.82-4.29-5.49-6.5-8.2l-3.46-3.94c-1.14-1.32-2.39-2.56-3.59-3.84s-2.46-2.5-3.77-3.67-2.59-2.36-4-3.46-2.69-2.26-4.08-3.35-2.73-2.23-4-3.42-2.66-2.32-3.93-3.57-2.59-2.46-3.86-3.74-2.61-2.48-3.91-3.74l-2-1.88-2-1.83q-8.1-7.4-16.89-14.51a316.19,316.19,0,0,0-38.09-26.49,212.81,212.81,0,0,0-43.44-19.62,193.61,193.61,0,0,0-23.24-5.84A168.35,168.35,0,0,0,324,1204Z"/><polygon class="cls-3" points="300.45 1014.93 148.93 1014.93 25.03 1140.95 25.03 894.91 148.93 729.91 148.93 894.91 301.38 894.91 299.52 894.91 451.96 894.91 451.96 729.91 575.87 894.91 575.87 1140.95 451.96 1014.93 300.45 1014.93"/><path class="cls-1" d="M300.45,1014.93c-25.25,0-50.51.92-75.76,3q-18.93,1.51-37.88,3.72c-12.62,1.46-25.25,3.1-37.88,4.78l8.18-3.43c-9,11.86-17.85,23.76-26.86,35.56l-13.6,17.61c-4.55,5.85-9.17,11.64-13.8,17.41s-9.32,11.49-14,17.18-9.43,11.38-14.51,16.71-10.44,10.4-15.76,15.49c-2.66,2.55-5.32,5.1-7.93,7.7l-7.76,7.86L0,1201.85V886.57l5-6.67,123.91-165,45-59.91V894.91l-25-25H301.38v50h-1.86v-50H452l-25,25V655l45,59.91,123.9,165,5,6.67V1202l-42.82-43.49c-5.17-5.25-10.29-10.54-15.64-15.61s-10.73-10.11-15.71-15.54c-2.5-2.7-4.91-5.49-7.27-8.33l-7.09-8.53q-7.05-8.55-14-17.21c-9.28-11.54-18.36-23.27-27.37-35s-17.94-23.68-26.92-35.5L452,1026c-12.62-1.65-25.25-3.24-37.87-4.66s-25.26-2.62-37.88-3.59C351,1015.81,325.7,1014.93,300.45,1014.93Zm0,0c25.25,0,50.5-.88,75.76-2.85,12.62-1,25.25-2.19,37.88-3.59s25.25-3,37.87-4.66l3.17-.41,4.75,3.73c11.67,9.18,23.41,18.29,35,27.51s23.2,18.49,34.58,28q8.55,7.08,17,14.29l8.41,7.23c2.8,2.41,5.55,4.87,8.21,7.42,5.34,5.07,10.27,10.55,15.27,16s10.18,10.64,15.34,15.89L550.87,1141v-246l5,15L432,744.92l45-15v190H299.52v-50h1.86v50H123.93v-190l45,15L45,909.93l5-15v246L7.2,1123.42l7.73-7.89c2.55-2.65,5.06-5.35,7.56-8,5-5.41,9.94-10.88,15.22-16s10.88-10,16.47-14.79,11.24-9.6,16.93-14.33,11.41-9.44,17.17-14.1l17.38-13.9c11.65-9.2,23.4-18.3,35.1-27.45l4.93-3.86,3.24.43c12.63,1.68,25.26,3.32,37.88,4.78s25.26,2.71,37.88,3.72C249.94,1014,275.2,1014.93,300.45,1014.93Z"/><polyline class="cls-4" points="451.96 1085.43 451.96 1188.74 430.96 1243.96 451.96 1270.96 451.96 1372.97 148.93 1402.96 169.94 1333.97 148.93 1309.97 148.93 1225.96 184.94 1195.96 148.93 1129.95 148.93 1024.93 451.96 1024.93"/><path class="cls-1" d="M452,1085.43c.88,8.61,1.68,17.22,2.45,25.83s1.49,17.22,2.15,25.83,1.36,17.21,2,25.82,1.28,17.22,1.82,25.83l.06,1-.61,2-8.7,28.3-8.87,28.23-1.75-11.69c7.55,8.57,15,17.25,22.46,25.87l2.65,3,.28,5.48c.43,8.5.92,17,1.28,25.51l1.17,25.5,1.11,25.5,1,25.5.63,16-17.29,2.39c-25.15,3.48-50.33,6.77-75.5,10s-50.38,6.35-75.58,9.35l-37.81,4.45-37.82,4.3q-18.91,2.13-37.84,4.16l-18.92,2-18.93,2-36.94,3.86,10.75-35.78,10.37-34.54L146,1326.7l5.1,23.72-20.95-24.05-6.21-7.14,0-9.26.26-42,.43-42,.12-11.62,8.59-7,18.2-14.77,18.24-14.71-5.59,29.35-17.39-33.35-17.25-33.41-2.82-5.46L127,1130l.7-26.26.77-26.25.86-26.26.93-26.25.69-19.43,18,.71,37.88,1.5,37.88,1.73c12.63.54,25.25,1.23,37.88,1.9l18.94,1,18.94,1.11,18.94,1.13,18.94,1.23,18.94,1.26,18.94,1.38c25.25,1.89,50.5,3.91,75.75,6.48-25.25,2.57-50.5,4.58-75.75,6.47l-18.94,1.38L338.33,1034l-18.94,1.23-18.94,1.13-18.94,1.12-18.94,1c-12.63.66-25.25,1.35-37.88,1.9l-37.88,1.72-37.88,1.5,18.72-18.71.93,26.25.86,26.26.77,26.25.7,26.26-2.68-10.52L187,1152l18.62,32.67,9.38,16.45L200,1214l-17.75,15.29-17.81,15.23,8.71-18.6.43,42,.26,42-6.17-16.4,21.06,24,9.16,10.42-4.06,13.3-10.52,34.5-10.63,34.45-26.19-31.93,18.95-1.77,19-1.7q18.94-1.72,37.91-3.34l37.94-3.19,37.95-3q37.95-3,75.94-5.65c25.32-1.74,50.66-3.45,76-5L433.49,1373l1-25.5,1.12-25.5,1.17-25.5c.36-8.5.85-17,1.28-25.51l2.93,8.54c-6.51-9.38-13.1-18.71-19.55-28.13l-4.23-6.19,2.48-5.51,12.13-27,12.31-26.93-.55,3c.54-8.61,1.21-17.22,1.82-25.83s1.29-17.21,2-25.82,1.42-17.22,2.15-25.83S451.09,1094,452,1085.43Z"/><circle class="cls-5" cx="775.03" cy="534.76" r="266.3"/><path class="cls-2" d="M775,594.74,979.48,499.3v76.54L840.42,690.17V951.93c219.5-115.88,200.5-376.09,200.5-376.09C1040.92,317,775,310,775,310s-265.9,7-265.9,265.89c0,0-19,260.21,200.5,376.09V690.17L570.57,575.84V499.3Z"/><polygon class="cls-6" points="301.38 894.91 451.96 894.91 451.96 255.86 300.45 43.1 148.93 255.86 148.93 894.91 299.52 894.91 301.38 894.91"/><path class="cls-1" d="M301.38,894.91q37.65,0,75.29-3.19c12.55-1.08,25.1-2.46,37.65-4l18.82-2.45L452,882.68l-12.23,12.23c-1.84-13.31-3.7-26.62-5.43-39.94S431,828.35,429.62,815q-1-10-1.91-20c-.56-6.65-1.21-13.31-1.36-20s0-13.31.25-20,.4-13.31.36-20V255.86l4.64,14.51L280.09,57.6h40.72L169.3,270.37l4.63-14.51V735.15l0,10c0,3.33.12,6.65.22,10,.22,6.66.52,13.32.29,20s-.89,13.32-1.44,20-1.25,13.32-1.94,20c-1.37,13.32-3,26.63-4.68,39.94L161,894.91l-12.11-12.1L168,885.39l19.06,2.42c12.7,1.53,25.4,2.9,38.11,4Q263.27,895,301.38,894.91Zm0,0q-38.11,0-76.22,3.16c-12.71,1-25.41,2.42-38.11,3.95L168,904.44,148.93,907l-10.29,1.39-1.81-13.5L131.47,855c-1.68-13.31-3.31-26.62-4.68-39.94q-1-10-1.94-20c-.55-6.65-1.26-13.31-1.44-20s.07-13.31.29-20c.1-3.33.2-6.65.22-10V247.87l4.64-6.51L280.08,28.6,300.45,0l20.36,28.6L472.33,241.36l4.63,6.51V735.15c0,6.66.12,13.32.37,20s.46,13.32.25,20-.8,13.32-1.36,20-1.22,13.32-1.91,20c-1.36,13.32-3,26.63-4.68,39.94S466,881.6,464.2,894.91l-1.89,13.67L452,907.15l-18.82-2.59-18.82-2.45c-12.55-1.54-25.1-2.93-37.65-4Q339,894.84,301.38,894.91Z"/><path class="cls-1" d="M300.44,812.42c-3.13-12.53-5.79-25.07-8.27-37.6-1.29-6.26-2.39-12.53-3.6-18.8s-2.24-12.53-3.3-18.8a44.09,44.09,0,0,1,.05-9.4c.11-1.56.13-3.13.12-4.7V286.05l3.35-18.79c1.19-6.27,2.31-12.54,3.58-18.8,2.46-12.54,5.06-25.07,8.07-37.6,3,12.53,5.61,25.06,8.07,37.6,1.27,6.26,2.39,12.53,3.58,18.8l3.35,18.79V723.13c0,1.56,0,3.13.11,4.7a43.35,43.35,0,0,1,.05,9.39c-1.06,6.27-2.19,12.54-3.3,18.8s-2.31,12.54-3.6,18.8C306.22,787.35,303.57,799.89,300.44,812.42Z"/><polygon class="cls-1" points="216.25 962.67 300.44 803.1 384.65 962.67 300.44 1034.93 216.25 962.67"/><path class="cls-2" d="M1081.43,956.91,870.72,1072.73l-192.08,26.18S748.5,1323.42,1525,1543.1c0-807-197-935.34-197-935.34l-77.49,177.69Z"/><path class="cls-1" d="M1081.43,956.91q-24.71,16.64-49.76,33.11l-25.09,16.5L981.36,1023c-16.82,11-33.78,21.9-50.74,32.88s-34,21.85-51.14,32.8l-1.83,1.17-4.48.92-47.59,9.69L778,1110c-7.94,1.58-15.87,3.23-23.85,4.47s-16,2.24-24,3.11-16.06,1.77-24.07,2.85l-24,3.26,20.49-32.2c0-.09,0-.19-.08-.28l0-.12,0,.1.16.4.16.43.27.58c.35.79.65,1.54,1.13,2.46s.85,1.74,1.32,2.64l1.52,2.75.76,1.37c.26.46.56.93.84,1.4l1.71,2.79c1.07,1.87,2.43,3.73,3.65,5.6l1.87,2.8,2,2.77c1.37,1.85,2.68,3.71,4.09,5.55l4.35,5.46,2.18,2.74c.75.9,1.54,1.79,2.3,2.68,3.12,3.55,6.08,7.19,9.42,10.63l4.87,5.23c.82.87,1.62,1.76,2.46,2.61l2.56,2.54,5.11,5.09,2.56,2.54,1.28,1.27,1.33,1.23,10.67,9.87c1.74,1.67,3.64,3.21,5.47,4.81l5.54,4.78,5.53,4.77c1.87,1.57,3.81,3.08,5.7,4.62l11.44,9.22c3.87,3,7.84,5.93,11.76,8.9l5.89,4.44,2.94,2.23,3,2.13,12.09,8.55,6.05,4.27c2,1.42,4.11,2.75,6.17,4.13l12.38,8.21c33.2,21.68,67.8,41.56,103.08,60.3l26.61,13.83,27,13.24c4.5,2.19,9,4.43,13.5,6.58l13.65,6.31,27.32,12.6c73.34,32.67,148.52,61.68,224.67,88.11s153.32,50.26,231,72.4L1500,1543.1c-.16-80.78-2.1-161.52-6.79-242s-12.15-160.7-23.62-240.17l-4.69-29.72-2.35-14.85c-.84-4.94-1.78-9.86-2.66-14.79l-5.4-29.54-6.06-29.37c-8.43-39.06-18.14-77.76-30-115.61L1414,812.9c-.77-2.35-1.48-4.73-2.3-7.06l-2.46-7-4.93-14L1403,781.4l-1.33-3.43-2.67-6.88c-1.8-4.58-3.52-9.19-5.37-13.74l-5.76-13.51c-1-2.25-1.89-4.52-2.89-6.75l-3.09-6.62-3.08-6.63c-1-2.19-2-4.44-3.15-6.58l-6.58-12.94-.83-1.62-.87-1.58-1.75-3.15-3.5-6.31-1.75-3.15c-.6-1-1.23-2-1.84-3.07l-3.71-6.12c-2.4-4.15-5.1-8-7.67-12-.65-1-1.29-2-2-3l-2-2.84-4.07-5.68c-1.39-1.85-2.82-3.62-4.23-5.44l-2.11-2.71-2.19-2.56c-1.46-1.69-2.88-3.5-4.39-5l-2.22-2.4c-.38-.4-.74-.81-1.12-1.19l-1.12-1.1-2.23-2.21c-.73-.7-1.45-1.32-2.18-2s-1.39-1.21-2-1.76l-.49-.42-.37-.27-.34-.27-.08-.06.1.07.25.16,36.56-11c-6.42,14.82-13.06,29.55-19,44.57-3,7.49-6.13,14.95-9.61,22.24S1315,699,1311.35,706.24l-22.17,43.2-22.27,43.15-2.06,4-1.6,1.42q-22.8,20.24-45.54,40.34t-45.49,40l-22.7,19.85-22.71,19.71Q1104.13,937.54,1081.43,956.91Zm0,0q19.59-23.49,39.17-46.68l19.57-23.15,19.57-23,39.07-45.76c13-15.22,26-30.3,39-45.39l-3.66,5.41,16.47-45.69L1267.2,687c2.79-7.59,5.43-15.25,8.43-22.76s6.33-14.86,9.76-22.17c6.95-14.6,13.21-29.49,19.71-44.28l12.13-27.61,24.43,16.66,1,.7.49.35.29.22,1.18.88,1.14.88,1,.8c1.3,1.07,2.63,2.16,3.73,3.19s2.34,2.09,3.44,3.14l3.18,3.14,1.59,1.57c.52.53,1,1.06,1.49,1.59l3,3.18c2,2.11,3.76,4.28,5.62,6.43l2.75,3.23,2.57,3.29c1.7,2.19,3.45,4.37,5.11,6.59l4.8,6.68,2.4,3.35c.77,1.13,1.5,2.26,2.26,3.4,3,4.54,6.07,9,8.77,13.66l4.18,6.91c.69,1.15,1.41,2.3,2.07,3.46l2,3.5,3.89,7,1.94,3.5,1,1.75.9,1.77,7.22,14.19c1.25,2.36,2.29,4.77,3.43,7.16l3.34,7.17,3.34,7.18c1.08,2.4,2.07,4.83,3.11,7.24l6.17,14.51c2,4.85,3.81,9.74,5.72,14.62l2.84,7.31,1.42,3.66,1.3,3.69,5.21,14.74,2.6,7.38c.86,2.46,1.61,4.94,2.41,7.42l4.76,14.85c12.39,39.66,22.45,79.79,31.15,120.09l6.24,30.27c1.9,10.11,3.7,20.24,5.55,30.36.9,5.06,1.86,10.12,2.73,15.18l2.41,15.22,4.8,30.44c11.73,81.27,19.3,162.88,24.07,244.51s6.71,163.31,6.87,244.92l.06,33.14-31.87-9.09c-78.49-22.36-156.54-46.48-233.8-73.28s-153.72-56.31-228.72-89.72l-28-12.9-14-6.46c-4.64-2.22-9.25-4.51-13.87-6.76-9.23-4.54-18.49-9-27.7-13.61l-27.43-14.25c-36.41-19.34-72.29-39.93-107.08-62.66l-13-8.62c-2.15-1.45-4.34-2.84-6.48-4.34l-6.38-4.51L799,1261l-3.19-2.26-3.13-2.36-6.27-4.72c-4.17-3.17-8.38-6.27-12.51-9.49l-12.28-9.88c-2-1.66-4.1-3.28-6.12-5l-6-5.17-6-5.17c-2-1.74-4-3.4-5.95-5.24L725.88,1201l-1.46-1.35-1.42-1.41-2.84-2.82-5.69-5.65-2.83-2.83c-.94-1-1.85-2-2.77-2.93l-5.51-5.9c-3.72-3.86-7.19-8.08-10.76-12.17-.88-1-1.78-2-2.65-3.09l-2.57-3.22-5.13-6.44c-1.68-2.2-3.3-4.48-5-6.71l-2.46-3.37-2.36-3.53c-1.56-2.37-3.18-4.63-4.66-7.15l-2.26-3.71c-.37-.62-.75-1.23-1.12-1.86l-1.08-2-2.16-3.92c-.7-1.34-1.39-2.78-2.08-4.16s-1.38-2.92-2-4.46l-.51-1.16-.53-1.34-.53-1.37-.13-.35-.2-.56-.4-1.19-9.4-28.11,29.9-4.09,24-3.28c8-1.11,16-2.41,24-3.7s15.95-2.53,24-3.44,16.1-1.47,24.17-2.07l48.43-3.55,48.45-3.39-6.3,2.08c18-8.35,36-16.8,54.21-25.1s36.31-16.74,54.62-25l27.46-12.5,27.59-12.45Q1053.49,969.24,1081.43,956.91Z"/><g id="shield_symbol"><path class="cls-1" d="M1382.91,1286l51.21-246.46L1334.14,908,1146.62,1050.5s109.19-32.8,160.45-71.76l38.46,50.61-74.86,90Z"/><path class="cls-1" d="M1310.26,1341.2l-251.18-16.63L959.1,1193l187.52-142.52s-60.83,96.42-112.09,135.38l38.47,50.6,106.78-48Z"/><path class="cls-1" d="M1276.12,1220.88l28.71-68.33,18,23.64-7.93,61.74,61.45,80.85c27.68-77.51-38.16-154.27-38.16-154.27-60.76-80-128.9-31.59-128.9-31.59s-64.83,52.7-4.06,132.65c0,0,56.33,84,138.42,78.06l-61.45-80.85-61.61-8.89-18-23.63Z"/></g><path class="cls-2" d="M663.63,1032.43l24.92-3c8.3-1,16.61-2,24.92-2.89l49.84-5.56,49.86-5.31c16.62-1.81,33.25-3.45,49.87-5.17l-8.14,3q43-37.08,86.4-73.59c7.23-6.1,14.47-12.18,21.65-18.34s14.25-12.46,21.37-18.69l21.25-18.85q10.62-9.44,21.47-18.57c28.93-24.36,60.17-45.76,92.18-66.16q12-7.62,24.3-14.92l6.16-3.63,6.2-3.56c4.12-2.4,8.3-4.72,12.48-7s8.43-4.56,12.64-6.84,8.5-4.45,12.83-6.58c8.62-4.3,17.34-8.49,26.39-12.23l3.07,3.94c-5.85,7.86-12.06,15.27-18.35,22.57-3.13,3.67-6.35,7.22-9.54,10.82s-6.44,7.11-9.74,10.56-6.55,7-9.89,10.37l-5,5.13-5,5.08q-10.1,10.1-20.45,19.88c-27.65,26-56.08,51-86.82,73q-11.52,8.28-23.28,16.24l-23.5,16c-7.8,5.37-15.65,10.66-23.38,16.12s-15.42,11-23.1,16.46q-46.07,33.12-92.61,65.61l-4.33,3-3.8,0c-16.71-.06-33.42,0-50.13-.16l-50.14-.32-50.16-.56c-8.36-.08-16.72-.25-25.08-.39l-25.09-.48Z"/><path class="cls-2" d="M614.18,1342c2.74-2.8,5.5-5.34,8.38-7.85s5.8-4.93,8.79-7.31q9-7,18.66-13.33a269.56,269.56,0,0,1,40.84-21.89q10.77-4.59,22-8.3t22.89-6.25c7.77-1.67,15.65-3,23.61-4a241.34,241.34,0,0,1,24.1-1.58c8.07-.12,16.21-.13,24.38.23a225.73,225.73,0,0,1,24.56,2.16c2,.28,4.06.67,6.09,1s4.06.76,6,1.29,4,1,6,1.55,3.92,1.22,5.87,1.87,3.88,1.36,5.78,2.13,3.81,1.53,5.67,2.38c3.7,1.75,7.4,3.51,10.94,5.57a173,173,0,0,1,20.35,13.45,165.7,165.7,0,0,1,18,16.15c1.4,1.45,2.79,2.9,4.13,4.4s2.63,3,3.91,4.6c2.61,3,4.94,6.36,7.31,9.6s4.43,6.75,6.48,10.24a104.65,104.65,0,0,1,5.45,11l-3.28,3.77c-4.07-.94-7.84-2.14-11.57-3.33-1.9-.55-3.72-1.17-5.56-1.75s-3.59-1.27-5.42-1.82L908,1352.46l-10.32-3.61-20-7c-6.6-2.19-13-4.48-19.45-6.51-3.19-1.11-6.4-2.06-9.54-3.19-1.58-.53-3.16-1-4.73-1.59-.78-.28-1.57-.56-2.34-.85l-2.35-.81c-6.23-2.28-12.44-4.55-18.69-6.92s-12.63-4.55-19.14-6.42a135.3,135.3,0,0,0-19.92-4.08,203.59,203.59,0,0,0-20.43-1.64c-6.86-.24-13.78-.2-20.71.17s-13.92.93-20.9,1.84-14,2.09-20.93,3.58a296,296,0,0,0-41.41,12.06c-6.81,2.52-13.56,5.32-20.2,8.39s-13.29,6.38-19.56,10Z"/></g></g></g></svg>